<svg xmlns="http://www.w3.org/2000/svg" height="189" width="208" viewBox="0 0 207.792 188.717">
  <g fill="#DCDDDF">
    <path d="M19.9 178.377c16.74-.248 33.485-.19 50.233-.084 27.113.174 55.57-1.623 82.48 1.992 9.36 1.258 20.42 3.07 29.273-1.16 10.596-5.063 15.06-15.81 17.22-26.74 0 0 3.028-15.9-5.772-12.042 3.656-1.603-.416-16.24-2.236-18.393-4.18-4.943-12.883-6.556-11.326-14.992 0 0 10.736-30.947-12.076-27.81 0 0-2.88-5.554-14.13-9.118 0 0-108.41-12.382-122.825 21.887 0 0-5.2-4.588-13.128-4.47 0 0-4.785 15.19 6.76 26.033 0 0-6.873-2.24-11.05-.78 0 0-4.077 7.993 1.692 19.568 0 0-24.908 19.032 4.885 46.11z"/>
    <path d="M185.64 109.517s.466-8.86 7.464-9.795c0 0 3.73 8.862-7.463 9.795zM8.062 107.65s-.47-8.86-7.465-9.795c0 0-3.73 8.863 7.465 9.796zM191.32 114.265s3.534-11.748 16.17-10.202c0 0 3.878 13.43-16.17 10.202z"/>
  </g>
  <path fill="#FFF" d="M71.878 176.637s-5.813 4.44-2.752 8.027c0 0 2.45 1.574 6.035 2.012 0 0 4.198.436 5.772 1.05 0 0 4.023 1.835 7.96-2.888 0 0 2.01-3.236 2.71-4.896"/>
  <path fill="#040507" d="M71.878 176.637c-.57.555-1.094 1.148-1.574 1.766-.474.62-.887 1.287-1.183 1.98-.303.686-.48 1.418-.41 2.104.057.686.365 1.305.84 1.814l-.122-.106c1.455.79 3.138 1.352 4.802 1.652.818.158 1.705.21 2.607.336.893.11 1.78.264 2.676.45.45.1.896.202 1.362.356.116.04.236.082.356.13.075.032.164.064.255.09.182.056.37.103.564.14.773.145 1.59.11 2.372-.086 1.582-.383 2.99-1.422 4.164-2.678l-.032.045c1.05-1.534 2.123-3.064 3.048-4.69-.284.897-.686 1.75-1.09 2.6-.41.845-.822 1.687-1.284 2.51l-.003.005-.03.037c-1.09 1.457-2.577 2.758-4.45 3.332-.93.277-1.927.367-2.908.23-.245-.036-.49-.085-.734-.157-.123-.035-.244-.076-.377-.127-.085-.035-.175-.064-.27-.096-.38-.12-.8-.213-1.222-.3-.847-.17-1.716-.286-2.585-.417-.857-.135-1.75-.197-2.675-.385-1.822-.385-3.543-1.02-5.15-2.04l-.074-.046-.05-.06c-.56-.687-.938-1.593-.932-2.5.002-.91.314-1.74.722-2.464.426-.72.956-1.344 1.526-1.912.57-.57 1.192-1.08 1.862-1.513z"/>
  <path fill="#FFF" d="M112.68 176.967s1.312 4.898 6.82 7.348c0 0 4.636 2.535 9.185-.875 0 0 7.17.7 7.783-2.623"/>
  <path fill="#040507" d="M112.68 176.967c.72 1.572 1.76 2.938 2.958 4.086 1.206 1.146 2.613 2.04 4.126 2.67l-.067-.027.115.05c.623.282 1.387.524 2.115.647.74.135 1.49.152 2.232.104 1.485-.115 2.91-.676 4.16-1.543l.205-.145.22.024c1.395.154 2.866.195 4.274.03.7-.1 1.405-.233 2.035-.538.63-.29 1.19-.787 1.412-1.51-.03.754-.53 1.47-1.175 1.908-.645.447-1.38.73-2.122.918-.743.193-1.5.31-2.256.365-.762.055-1.506.088-2.29.037l.425-.12c-.677.53-1.423.99-2.228 1.33-.81.325-1.67.538-2.542.622-.872.09-1.752.025-2.604-.14-.86-.173-1.66-.41-2.487-.856l.047.023c-1.63-.768-3.104-1.875-4.243-3.25-1.135-1.365-1.987-2.977-2.315-4.686z"/>
  <path fill="#FFF" d="M138.615 37.172s4.5-30.5 37.812-13.34c0 0 19.94 11.194 12.594 30.784 0 0-5.946 13.993-23.086 13.993l-27.32-31.438zM50.84 64.762S34.05 60.912 31.25 47.97c0 0-2.448-26.236 24.138-32.184 0 0 19.727-6.114 27.227 16.886l-23.03 25.442-8.744 6.648z"/>
  <path fill="#FFF" d="M152.07 146.326c-.28.218-.513.46-.69.733-1.67 2.586-.797 9.705-1.614 12.965-1.773 7.066-4.738 14.66-10.838 19.106-5.588 4.077-12.48 1.89-18.242-.444-9.795-3.963-28.45.934-28.45.934-15.628 3.266-24.257-4.896-24.257-4.896-19.59-16.093-5.366-44.05-5.366-44.05-6.8-3.208 6-2.25 6-2.25l.75-4.75c3.732-7.93-5.188-11.097-5.188-11.097-16.396-22.033-11.587-43.5-11.587-43.5.743-4.33 1.985-8.71 3.956-12.642 2.832-5.646 6.66-10.755 11.58-14.727 4.51-3.64 9.146-6.27 14.557-8.29.316-.118.635-.234.96-.35 4.776-1.69 9.388-1.975 14.327-2.315 3.477-.24 6.96-.367 10.447-.288 10.03.228 19.76 2.444 29.06 6.15 3.41 1.356 5.757 2.29 9.04 3.833 22.104 10.39 28.958 45.204 15.66 64.408-.928 1.338-7.383 10.775-12.47 13.166.486.255 1.014.53 1.576.827"/>
  <path fill="#040507" d="M152.114 146.38c-.923.698-1.205 1.888-1.406 2.985-.185 1.124-.246 2.27-.285 3.41-.095 2.29.023 4.586-.35 6.902-1.03 4.496-2.462 8.933-4.85 12.936-1.193 1.99-2.63 3.854-4.353 5.44-.867.788-1.77 1.517-2.803 2.134-1.028.594-2.145 1.045-3.303 1.314-2.323.55-4.736.413-7.023-.04-2.296-.455-4.5-1.215-6.65-2.053-2.083-.893-4.275-1.318-6.53-1.527-2.246-.205-4.52-.19-6.788-.057-4.536.28-9.056 1.014-13.496 2.018-4.454 1.2-9.254 1.61-13.9.923-2.323-.342-4.612-.96-6.79-1.86-2.182-.925-4.235-2.036-6.107-3.653l.037.033c-3.163-2.58-5.827-5.83-7.62-9.527-1.812-3.69-2.728-7.77-2.936-11.83-.212-4.072.24-8.14 1.126-12.086.904-3.95 2.17-7.78 3.94-11.467l.307.895c-.423-.2-.843-.417-1.266-.687-.212-.138-.423-.283-.643-.498-.107-.104-.225-.24-.33-.435-.106-.18-.19-.566-.04-.88.325-.58.668-.608.92-.732.27-.094.517-.146.76-.19.487-.082.956-.124 1.422-.15 1.86-.098 3.672-.023 5.504.1l-.668.53.777-4.746v-.007c.01-.055.026-.108.05-.156.476-1.002.808-2.065.868-3.138.064-1.072-.17-2.14-.677-3.086-.503-.95-1.257-1.775-2.128-2.464-.866-.684-1.875-1.267-2.88-1.664l-.02-.008c-.09-.036-.167-.098-.222-.172-6.313-8.545-10.528-18.688-11.735-29.245-.597-5.26-.56-10.64.542-15.833.508-2.602 1.2-5.168 2.122-7.656.916-2.493 2.128-4.86 3.487-7.134 2.725-4.535 6.173-8.683 10.366-11.946 4.15-3.296 8.822-5.94 13.785-7.802 2.436-1.036 5.043-1.756 7.664-2.196 2.626-.445 5.273-.687 7.9-.896 5.28-.373 10.598-.5 15.903-.01 5.294.485 10.54 1.496 15.632 3.008 5.113 1.496 10.005 3.52 14.87 5.615 1.202.536 2.43 1.093 3.602 1.697 1.208.627 2.343 1.324 3.45 2.087 2.21 1.524 4.23 3.31 6.032 5.29 3.617 3.952 6.372 8.63 8.33 13.58 1.944 4.963 3.117 10.214 3.503 15.518.39 5.3-.007 10.67-1.318 15.828-.66 2.575-1.565 5.09-2.73 7.48-1.15 2.4-2.65 4.62-4.23 6.73-1.58 2.12-3.238 4.185-5.045 6.12-1.82 1.9-3.74 3.805-6.146 4.98l.003-.154 1.566.842c.034.018.047.06.028.095-.018.033-.06.046-.094.028l-1.582-.812c-.042-.02-.06-.073-.037-.115.01-.017.026-.03.04-.038 2.34-1.193 4.22-3.116 5.992-5.036 1.76-1.955 3.376-4.037 4.908-6.176 1.542-2.137 2.972-4.334 4.063-6.718 1.1-2.374 1.95-4.86 2.58-7.398 1.237-5.086 1.574-10.377 1.135-15.59-.435-5.212-1.643-10.36-3.597-15.2-1.95-4.836-4.655-9.394-8.187-13.215-1.757-1.914-3.722-3.635-5.86-5.098-1.067-.73-2.188-1.408-3.323-1.99-1.174-.6-2.353-1.126-3.56-1.66-4.83-2.055-9.718-4.053-14.745-5.498-5.03-1.453-10.18-2.505-15.395-2.987-5.205-.502-10.47-.396-15.71-.044-2.635.154-5.258.257-7.85.604-2.6.323-5.126.944-7.605 1.828-9.797 3.67-18.682 10.327-23.97 19.47-1.337 2.258-2.528 4.61-3.42 7.075-.9 2.464-1.575 5.01-2.066 7.588-1.087 5.145-1.025 10.466-.38 15.66 1.33 10.422 5.597 20.365 11.913 28.707l-.243-.18c1.175.45 2.215 1.044 3.197 1.792.968.747 1.842 1.67 2.45 2.782.613 1.107.915 2.406.852 3.672-.057 1.27-.43 2.482-.94 3.594l.05-.162-.723 4.754c-.05.322-.335.55-.654.53h-.014c-1.774-.11-3.584-.173-5.332-.07-.436.027-.868.07-1.272.142-.2.036-.396.082-.554.14-.157.03-.28.188-.16.025.05-.106.008-.245.008-.23.005.004.03.048.086.098.103.103.264.218.43.324.34.215.727.412 1.12.597.33.154.47.545.317.873v.003l-.01.02c-1.668 3.522-2.914 7.33-3.766 11.168-.84 3.85-1.256 7.796-1.03 11.706.222 3.904 1.125 7.767 2.82 11.265 1.69 3.502 4.2 6.58 7.214 9.052l.04.035c1.6 1.39 3.622 2.523 5.66 3.38 2.06.858 4.234 1.448 6.45 1.78 4.445.666 8.978.28 13.388-.857 4.52-.965 9.1-1.65 13.73-1.88 2.314-.11 4.643-.1 6.964.142 2.306.238 4.668.732 6.802 1.682 2.112.852 4.256 1.617 6.46 2.082 2.193.463 4.47.613 6.635.127 1.08-.238 2.118-.643 3.082-1.184.946-.55 1.85-1.253 2.687-2 1.674-1.505 3.092-3.292 4.28-5.22 2.36-3.877 3.885-8.254 5.01-12.657.41-2.216.35-4.54.496-6.827.065-1.147.153-2.3.367-3.437.225-1.104.552-2.347 1.53-3.057l.008-.005c.032-.022.076-.016.1.016.02.03.015.072-.016.095z"/>
  <path fill="#040507" d="M83.14 43.422c-3.263 2.56-6.288 5.405-9.142 8.4-2.84 3.01-5.472 6.215-7.766 9.646-2.282 3.432-4.268 7.074-5.64 10.946-1.373 3.86-2.117 7.96-1.912 12.032l-.005-.05c.694 3.63 2.08 7.198 3.818 10.498 1.766 3.302 3.94 6.388 6.53 9.085 2.584 2.702 5.56 5.02 8.8 6.886 3.23 1.885 6.765 3.203 10.34 4.403 7.16 2.354 14.615 3.82 22.126 4.314 7.507.48 15.104-.147 22.354-2.146l.048-.012c6.49-1.54 12.775-4.733 17.593-9.412 2.406-2.344 4.41-5.106 5.816-8.162 1.42-3.05 2.236-6.37 2.523-9.737.07-.835.114-1.704.12-2.518-.025-.845-.076-1.696-.14-2.546-.125-1.697-.306-3.395-.533-5.085-.462-3.38-1.07-6.743-1.91-10.054-1.67-6.608-4.156-13.08-7.956-18.794 3.995 5.588 6.628 12.055 8.46 18.662.91 3.313 1.628 6.683 2.13 10.084.252 1.7.458 3.41.61 5.124.075.858.138 1.716.175 2.582.007.898-.028 1.742-.086 2.614-.247 3.46-1.04 6.902-2.47 10.09-1.414 3.19-3.46 6.096-5.925 8.563-2.47 2.47-5.35 4.5-8.414 6.135-3.083 1.623-6.306 2.905-9.75 3.7l.047-.013c-7.394 2.074-15.137 2.748-22.778 2.294-7.652-.434-15.204-2.022-22.46-4.426-3.608-1.23-7.228-2.596-10.56-4.56-3.332-1.937-6.396-4.346-9.046-7.145-2.65-2.8-4.906-5.973-6.663-9.397-1.744-3.436-3.1-7.044-3.782-10.888l-.003-.02v-.03c-.155-4.226.674-8.432 2.13-12.354 1.46-3.928 3.505-7.608 5.902-11.014 2.394-3.412 5.114-6.576 8.032-9.532 2.924-2.945 6.042-5.705 9.384-8.162z"/>
  <path fill="none" stroke="#040507" stroke-width=".7" stroke-miterlimit="10" d="M70.78 46.92s42.21-8.396 78.826 10.96M122.32 46.22s20.755 2.8 35.915 16.56"/>
  <circle cx="72.179" cy="81.816" r="2.799" fill="#FDFEFF"/>
  <circle cx="72.441" cy="76.131" r="1.399" fill="#FDFEFF"/>
  <path fill="#FDFEFF" d="M75.415 66.686s-4.373 3.147-5.16 9.008c0 0-.176 2.187 1.05 4.81 0 0 2.886 4.985 7.083 7.084 0 0-8.746-1.05-9.707-8.832 0 0-.962-10.06 6.735-12.07z"/>
  <path fill="#030405" d="M62.733 132.627c-.774 1.392-1.447 2.833-2.024 4.31-.595 1.47-1.102 2.972-1.51 4.5-.82 3.048-1.308 6.193-1.244 9.342.016 1.56.136 3.164.414 4.688.295 1.54.78 3.045 1.33 4.522 1.123 2.95 2.706 5.725 4.55 8.32-2.076-2.42-3.802-5.158-5.05-8.12-.638-1.475-1.116-3.018-1.454-4.598-.313-1.604-.45-3.187-.488-4.806-.007-3.222.485-6.436 1.428-9.5.954-3.056 2.26-6.014 4.047-8.66z"/>
  <path fill="#040507" d="M83.36 32.126c-1.793-5.877-5.133-12.385-10.826-15.243-4.795-2.406-10.87-3.39-16.18-2.683-3.086.41-6.29 1.426-9.094 2.776-4.11 1.98-7.783 4.678-10.832 8.076-4.814 5.37-6.95 13.805-6.137 20.87.237 2.045.772 4.19 1.597 6.08 1.863 4.273 5.703 7.61 10.053 9.195 3.613 1.316 7.8 2.37 11.58 2.98-8.512-.583-19.514-5.418-21.127-15.955-.69-4.52-.314-8.458 1.094-12.803.59-1.825 1.113-4.164 2.117-5.8 4.93-8.026 14.336-13.73 23.846-13.71 6.17.015 13.346 1.67 17.238 6.848 2.355 3.13 3.582 7.41 4.586 11.13.85-.19 1.504-.674 2.367-.82-.09-.313-.184-.63-.28-.942z"/>
  <path fill="none" stroke="#040507" stroke-width=".7" stroke-miterlimit="10" d="M53.495 64.166c-10.52-1.41-15.367-7.333-15.367-7.333-6.762-8.513-1.28-21.34-1.28-21.34C43.96 19.636 60.983 19.87 60.983 19.87c16.21-.118 20.553 13.757 20.553 13.757"/>
  <path fill="#040507" d="M84.888 32.695s12.828-6.996 46.295-2.45c0 0-6.182-.815-8.512.35 0 0 9.562 2.067 14.692 4.707 0 0 1.865 1.124 6.88 4.623 0 0-18.423-8.512-30.32-7.23 0 0-11.66.35-18.188 4.782 0 0 3.848-4.665 13.41-6.997 0 0-14.227-.233-21.34 4.315 0 0 1.953-2.13 5.8-3.528 0 0-6.617.495-8.716 1.428z"/>
  <path fill="#040507" d="M137.362 35.3s3.615-19.164 24.953-17.765c0 0 13.876.815 23.44 12.71 0 0 9.91 12.827 2.448 26.004 0 0-3.266 10.144-21.107 11.427 0 0 14.693-1.75 19.24-9.912 0 0 7.932-13.644-1.865-26.003 0 0-8.628-12.01-22.737-12.71 0 0-13.527-1.283-18.89 9.56 0 0-2.917 6.53-2.798 8.864l-2.683-2.175z"/>
  <path fill="none" stroke="#060709" stroke-width=".7" stroke-miterlimit="10" d="M140.046 37.476s4.662-14.81 20.404-13.877c0 0 12.828.23 20.173 8.978 0 0 11.428 10.145 5.365 24.255 0 0-2.63 8.765-18.398 10.972"/>
  <path fill="#040507" d="M104.01 89.04c.288-.01.546-.003.743.01 1.574.093 3.965 1.423 4.09 3.177.1 1.408-1.816 1.938-2.95 1.834-1.286-.116-2.59-.444-3.667-1.185-.826-.57-1.533-1.865-.97-2.826.493-.847 1.874-.978 2.755-1.01z"/>
  <path fill="#FFF" d="M103.84 89.424s-1.925-.116-1.75 1.517c0 0 .173 1.34 2.913 1.633 0 0 2.45-.175 1.516-1.924 0 0-.757-1.168-2.68-1.226z"/>
  <path fill="#040507" d="M150.843 117.682c-1.66 1.088-3.34 2.133-5.053 3.13-1.715.985-3.447 1.967-5.295 2.677 1.8-.817 3.462-1.895 5.11-2.974 1.643-1.092 3.256-2.232 4.835-3.406.154-.116.374-.086.49.068.117.154.086.373-.068.49l-.02.014zM83.198 180.116c-2.997-1.15-5.298-3.654-6.918-6.385-1.632-2.768-2.623-5.872-3.222-9.017-.293-1.577-.478-3.172-.59-4.77-.12-1.592-.138-3.222-.02-4.82.214-3.203.774-6.387 1.713-9.472 1.824-6.156 5.517-11.948 10.9-15.685 2.665-1.875 5.674-3.233 8.797-4.103 3.142-.872 6.325-1.284 9.614-1.367 3.288.178 6.44.832 9.533 1.788 3.08.97 6.057 2.3 8.798 4.025 5.5 3.418 9.945 8.587 12.343 14.6 1.23 2.986 2.024 6.132 2.473 9.31.227 1.588.364 3.187.433 4.786.09 1.595.02 3.23-.136 4.81-.32 3.18-.89 6.346-1.886 9.385-1.003 3.005-2.465 6.02-4.954 8.052 1.194-1.055 2.117-2.37 2.85-3.768.743-1.395 1.3-2.88 1.75-4.395.885-3.036 1.345-6.183 1.556-9.332.273-3.148-.013-6.29-.488-9.408-.502-3.104-1.34-6.154-2.59-9.022-1.25-2.867-2.91-5.544-4.935-7.91-2.03-2.36-4.44-4.388-7.092-6.028-5.3-3.262-11.526-5.128-17.69-5.496-6.165.104-12.548 1.548-17.65 5.115-2.553 1.76-4.758 4.01-6.518 6.574-1.758 2.566-3.108 5.416-4.086 8.39-.972 2.98-1.584 6.085-1.857 9.217-.146 1.573-.16 3.127-.073 4.707.076 1.575.235 3.145.48 4.7.486 3.105 1.357 6.18 2.87 8.95.754 1.383 1.673 2.68 2.77 3.816 1.094 1.13 2.355 2.147 3.828 2.753zM139.856 100.237c2.335-1.173 4.87-1.877 7.417-2.436 2.558-.53 5.17-.743 7.775-.807 5.212-.144 10.428.498 15.44 1.84l-.017.07c-5.053-1.146-10.25-1.616-15.4-1.35-2.577.137-5.13.5-7.667.935-2.54.428-5.053 1.02-7.52 1.813l-.027-.063zM143.545 101.283c2.065.02 4.108.35 6.128.763 2.018.438 3.98 1.11 5.89 1.89 1.912.777 3.77 1.704 5.492 2.84 1.713 1.147 3.295 2.514 4.554 4.142l-.056.045c-1.325-1.563-2.948-2.838-4.687-3.89-1.736-1.063-3.596-1.913-5.505-2.615-1.913-.7-3.884-1.21-5.85-1.73-1.968-.53-3.963-.956-5.973-1.373l.005-.072zM69.534 90.85c-1.732-.982-3.554-1.765-5.416-2.428-1.858-.668-3.735-1.3-5.663-1.777-3.857-.936-7.83-1.41-11.815-1.558v-.07c3.993-.055 8.007.257 11.94 1.082 1.963.406 3.925.9 5.79 1.67 1.847.792 3.68 1.696 5.207 3.026l-.043.055zM67.975 91.907c-1.643.013-3.268.007-4.892.083-1.622.063-3.247.084-4.866.243-3.23.334-6.445 1.025-9.46 2.296l-.03-.065c2.942-1.46 6.165-2.325 9.423-2.787 1.63-.236 3.276-.416 4.926-.388 1.647.052 3.3.16 4.908.55l-.01.067z"/>
  <path fill="none" stroke="#040507" stroke-width=".7" stroke-miterlimit="10" d="M38.245 59.048s8.512 4.897 15.275 5.714"/>
  <path fill="#040507" d="M110.716 50.923s18.898-5.88 49.876 6.01c0 0-4.69-.172-6.088.924 0 0 7.39.585 14.2 2.714l-12.063 1.646-4.734 6.716s-3.306-6.595-8.217-9.28c-.002 0-17.823-9.216-32.974-8.73z"/>
  <circle cx="82.966" cy="74.149" r="14.051" fill="#040507"/>
  <circle cx="85.472" cy="78.58" r="7.172" fill="#FDFEFF"/>
  <circle cx="74.277" cy="79.367" r="2.798" fill="#FDFEFF"/>
  <circle cx="74.54" cy="73.683" r="1.398" fill="#FDFEFF"/>
  <path fill="#FDFEFF" d="M77.515 64.237s-4.373 3.148-5.16 9.008c0 0-.176 2.187 1.05 4.81 0 0 2.886 4.986 7.083 7.085 0 0-8.746-1.05-9.707-8.833 0 0-.963-10.06 6.735-12.07z"/>
  <circle cx="132.872" cy="79.629" r="14.051" fill="#040507"/>
  <path fill="#FDFEFF" d="M136.722 83.477c0 4.058-3.29 7.347-7.348 7.347-4.055 0-7.346-3.29-7.346-7.347s3.29-7.346 7.346-7.346c4.06 0 7.348 3.29 7.348 7.347z"/>
  <circle cx="139.607" cy="86.626" r="2.8" fill="#FDFEFF"/>
  <circle cx="139.957" cy="80.591" r="1.399" fill="#FDFEFF"/>
  <path fill="#FDFEFF" d="M142.274 72.224c.553.58.725 1.418.977 2.156 1.062 3.108.792 6.467-.757 9.36 0 0-4.723 6.208-9.096 6.908 0 0-1.662.7-4.023.175 0 0 3.674 1.75 9.97-1.137 1.53-.7 2.845-2.56 3.687-3.924 1.304-2.105 2.085-4.565 2.146-7.043.063-2.72-1.003-4.632-2.902-6.496z"/>
  <path fill="#040507" d="M105.918 49.932s-18.88-5.28-47.17 1.994l6.71 1.177-1.888 1.386L51.435 56 62.2 58.545l3.8 6.31s9.925-16.16 39.918-14.923zM88.628 16.856c-1.026-4.32-2.77-8.402-4.2-12.594-.067-.2-.738-.003-.675.18 1.43 4.193 3.173 8.276 4.2 12.595.046.195.723.02.675-.18zM94.69 17.79c-.497-3.495-.997-6.973-2.332-10.263-.113-.278-.782-.08-.676.18 1.335 3.29 1.835 6.77 2.332 10.263.04.28.718.115.676-.18zM100.286 15.962c.54-5.39 1.85-10.642 3.264-15.858.053-.194-.618-.093-.67.104-1.415 5.216-2.724 10.47-3.265 15.858-.023.222.652.085.67-.104z"/>
  <path fill="#FFF" d="M73.365 132.672c3.323 2.093 7.19 3.398 10.883 4.663 3.756 1.286 7.565 2.397 11.385 3.474 2.692.757 5.81 1.65 7.575 3.997 1.262 1.676.962 3.557-.497 4.97-.33.32-.705.647-1.095.896-.738.448-1.25.93-2.118 1.2-.857.265-1.75.437-2.635.577-1.978.313-3.984.406-5.982.478-5.047.182-9.852-.873-14.742-1.97-3.083-.69-6.133-1.61-8.972-3.014-2.832-1.398-5.577-3.303-7.728-5.64-.318-.345-.625-.7-.824-1.132-4.75-11.5 5.312-21.846 5.312-21.846s1.862-3.713-.45-7.617"/>
  <path fill="#060709" d="M73.365 132.672c3.95 2.336 8.368 3.63 12.71 5.03 2.18.675 4.368 1.327 6.568 1.94 2.19.646 4.422 1.12 6.61 1.953 1.084.426 2.146.973 3.082 1.73.898.768 1.78 1.728 2.03 3.023.252 1.29-.283 2.62-1.13 3.51-.427.45-.854.832-1.387 1.186-.48.293-.908.643-1.476.943-.276.145-.58.266-.88.35-.274.078-.544.16-.84.225-.585.145-1.142.238-1.728.338-1.125.18-2.304.295-3.445.37-1.145.07-2.307.132-3.447.15-1.168.014-2.324-.034-3.477-.132-2.306-.19-4.585-.574-6.83-1.05-2.243-.486-4.482-.946-6.71-1.585-4.437-1.248-8.723-3.33-12.213-6.422-.436-.385-.854-.79-1.262-1.206-.39-.426-.812-.832-1.145-1.4-.536-1.133-.83-2.23-1.072-3.383-.462-2.294-.414-4.673.047-6.948.944-4.564 3.335-8.696 6.458-12.065l-.025.035c.54-1.163.79-2.494.742-3.796-.04-1.31-.415-2.607-1.065-3.758.696 1.122 1.135 2.416 1.226 3.748.085 1.333-.116 2.682-.65 3.932l-.016.025-.01.01c-1.504 1.69-2.774 3.608-3.81 5.62-1.04 2.01-1.836 4.15-2.237 6.366-.405 2.212-.406 4.494.077 6.678.24 1.075.585 2.198 1.04 3.122.25.422.663.817 1.048 1.225.395.398.8.786 1.223 1.155 3.393 2.967 7.55 4.962 11.907 6.158 2.173.61 4.42 1.058 6.647 1.528 2.23.445 4.467.84 6.718 1.04 1.124.103 2.255.156 3.373.15 1.146-.012 2.268-.063 3.406-.127 1.142-.07 2.24-.17 3.375-.343.542-.09 1.114-.183 1.64-.31.262-.055.54-.137.815-.213.252-.07.482-.16.713-.28.448-.226.92-.594 1.417-.895.422-.273.857-.655 1.217-1.033.72-.756 1.12-1.78.935-2.767-.18-.992-.894-1.862-1.704-2.57-.833-.698-1.814-1.234-2.848-1.66-2.074-.84-4.324-1.366-6.503-2.054-2.19-.662-4.38-1.332-6.545-2.08-4.29-1.54-8.72-2.944-12.567-5.464z"/>
  <path fill="#FFF" d="M146.365 120.672c-1.25.25-1.25-.25-2.25-.75-4.25-1.75-6.75-3.25-11.5-4-6.75-1-23.25-6.75-28.75-.75-7.25 8 11.5 13 16.25 14.25 3 .75 22.25 10 21 11.5"/>
  <path fill="#060709" d="M146.415 120.347c-1.042.11-2.587-.967-3.536-1.373-1.35-.578-2.683-1.184-4.044-1.73-2.626-1.06-5.34-1.46-8.09-2.022-4.8-.98-9.522-2.25-14.396-2.83-3.896-.463-8.36-.565-11.764 1.677-2.44 1.606-3.62 4.61-2.09 7.197 1.75 2.96 5.754 4.533 8.776 5.747 2.964 1.19 6.052 1.877 9.073 2.87 3.396 1.117 6.657 2.85 9.848 4.44 3.266 1.628 6.69 3.28 9.596 5.514.144.112 1.034.754.866 1.044-.26.448.722.416.916.082 1.21-2.088-13.267-8.47-14.768-9.172-5.87-2.75-12.273-3.9-18.075-6.77-2.892-1.433-7.186-4.115-5.676-7.932 2.097-5.298 9.767-4.474 14.222-3.886 4.71.62 9.267 1.97 13.928 2.832 2.92.54 5.63 1.204 8.372 2.354 1.538.646 3.224 1.243 4.66 2.09.8.473 1.12.62 2.078.518.517-.055.764-.722.1-.65z"/>
  <path fill="#DCDDDF" d="M102.865 126.422c-3.25-2-6.75-5-9.75.5-4.75 8.75 6 12.5 11.25 16.75-.25-.25-.5-.75-.75-1"/>
  <path fill="#07090A" d="M103.24 126.157c-2.232-1.397-4.62-3.29-7.392-2.45-2.897.874-4.437 5.026-4.393 7.753.1 6.157 8.496 9.296 12.534 12.48.256.202 1.095-.105.82-.473l-.75-1c-.245-.326-1.17.036-.89.412l.75 1 .82-.473c-3.635-2.867-8.21-4.756-11.022-8.563-1.638-2.22-1.52-4.83-.458-7.262.957-2.19 2.823-3.983 5.35-3.124 1.388.473 2.646 1.46 3.88 2.23.332.21 1.196-.252.75-.53z"/>
  <path fill="#DCDDDF" d="M101.615 125.672c1.5.25 2.5 1.5 3 3"/>
  <path fill="#07090A" d="M101.33 125.974c1.465.284 2.336 1.487 2.802 2.827.14.405 1.102.133.966-.257-.526-1.514-1.55-2.854-3.198-3.173-.24-.047-.508-.003-.683.183-.137.146-.108.38.113.42z"/>
  <path fill="#DCDDDF" d="M104.865 128.172c.75-1.5 2.5-2.25 4.25-2.5"/>
  <path fill="#07090A" d="M105.345 128.102c.75-1.38 2.212-1.965 3.694-2.197.43-.068.822-.57.15-.465-1.895.297-3.845 1.035-4.807 2.803-.118.22.812.134.962-.14z"/>
  <path fill="#DCDDDF" d="M110.365 125.672c2.75.75 5 2.5 5 6-.25 6.25-10 7.25-11.25 13"/>
  <path fill="#07090A" d="M110.085 125.995c2.966.9 5.025 2.95 4.747 6.24-.195 2.302-2.198 3.91-3.925 5.15-2.83 2.035-6.317 3.688-7.28 7.325-.122.46.867.343.978-.076 1.25-4.724 7.206-6.03 10.02-9.622 3.058-3.905.14-8.413-3.98-9.662-.41-.124-1.142.468-.56.645z"/>
  <path fill="#040507" d="M105.558 128.16c1.755-2.12 4.816-3.032 6.605-.56.16.222 1.093-.09.903-.355-1.44-2.014-3.54-1.845-5.49-.677-.532.317.21.35.467.258 3.038-1.073 5.192 1.78 5.912 4.264.726 2.505-.703 4.85-2.523 6.423-2.554 2.205-5.893 3.358-7.547 6.48l.962-.2v-1.25c0-.23-.966-.07-.966.258v1.25c0 .3.874-.032.963-.2 2.483-4.688 9.443-5.313 10.23-11.162.33-2.45-1.307-4.94-3.354-6.107-.766-.435-1.617-.495-2.47-.465-.284.01-.57.077-.842.15 1.412-.378 2.753-.063 3.753 1.334.302-.12.603-.236.904-.355-2.247-3.104-6.318-1.57-8.395.94-.237.287.717.18.888-.025z"/>
  <path fill="#040507" d="M105.31 128.91c.746-1.02 2.263-1.778 3.478-2.013.42-.08.825-.58.154-.45-1.573.303-3.544 1.152-4.52 2.487-.23.313.727.194.887-.023z"/>
  <path fill="#DCDDDF" d="M101.17 126.87c.818 1.09 1.68 2.167 2.212 3.432.158.376 1.112.09.966-.258-.554-1.315-1.435-2.438-2.287-3.57-.224-.298-1.153.05-.89.397z"/>
  <path fill="#DCDDDF" d="M101.165 127.606c1.22.998 2.188 2.198 2.717 3.695.112.32 1.07.037.966-.257-.54-1.534-1.533-2.782-2.783-3.805-.252-.205-1.143.17-.9.368z"/>
  <path fill="#DCDDDF" d="M101.167 127.117c.997 1.214 1.985 2.37 2.75 3.75l.895-.39c-.848-.956-1.45-2.012-1.964-3.184l-.93.323c1.2 1.28 2.142 2.628 2.964 4.185.31-.106.62-.214.93-.322-.655-.71-1.21-1.45-1.75-2.25-.193-.287-1.12.03-.895.39.806 1.285 1.653 2.512 2.214 3.934l.93-.323c-.77-1.215-1.63-2.355-2.5-3.5-.208-.276-1.12.027-.894.388.806 1.286 1.653 2.513 2.214 3.935l.93-.323c-.872-1.14-1.662-2.335-2.5-3.5l-.895.39c.87 1.145 1.728 2.285 2.5 3.5l.895-.39c-.838-1.233-1.912-2.267-2.75-3.5l-.895.39c1.048 1.044 2.11 2.053 3.25 3 .245.202 1.12.01.895-.39-.69-1.216-2.085-3.1-.393-4.146-.232-.085-.463-.17-.695-.253l-.75.75c-.404.405.47.403.695.254l.75-.5c.45-.3-.057-.49-.374-.42-.81.175-.816.167-1.484.6-.56.362.285.51.607.32 1.643-.96 3.182-1.978 5.135-2.124.243-.02.863-.435.353-.563-1.847-.46-3.33-.178-4.683 1.184-.42.423.484.37.695.254 1.07-.716 2.24-1.005 3.512-.87l.244-.576c-.376 0-.752-.003-1.127-.005-.21-.027-.72.13-.667.42.152.835.098 1.666.25 2.5l.93-.323c-.39-.605-.86-1.144-1.25-1.75-.17-.264-1.074.017-.93.323.385.82.71 1.643 1 2.5l.966-.258c-.348-.908-.777-1.74-1.286-2.565-.163-.264-1.058.002-.93.323.42 1.063.58 2.188 1 3.25l.93-.323-1.5-2.25c-.188-.282-.96-.016-.93.323.106 1.214.502 2.393 1 3.5l.966-.258c-.605-1.155-1.276-2.254-2.036-3.315-.178-.248-1.05-.01-.93.323.543 1.517 1.207 2.984 1.75 4.5l.93-.323c-.982-1.078-1.748-2.254-2.5-3.5l-.895.39c.908 1.488 1.477 3.112 2.214 4.684.163.35 1.107.066.965-.258-.734-1.678-1.545-3.275-2.536-4.815-.17-.262-1.074.016-.93.324.71 1.54 1.223 3.14 1.75 4.75l.93-.323c-.948-1.267-1.704-2.635-2.5-4-.16-.27-1.034-.01-.93.324.54 1.765 1.207 3.486 1.75 5.25l.93-.323c-.948-1.267-1.704-2.635-2.5-4-.16-.27-1.075.022-.93.324.728 1.54 1.27 3.117 1.75 4.75l.965-.258c-.773-1.574-1.495-3.146-2.536-4.565-.184-.248-1.084.02-.93.324l2.25 4.5.93-.323c-.734-1.022-1.38-2.066-1.965-3.184-.17-.324-1.044-.127-.966.258.258 1.28.553 2.52 1 3.75l.93-.323c-.24-.394-.477-.79-.715-1.184-.173-.332-1.013-.13-.966.258.228 1.902.202 3.775-.002 5.677-.046.434.878.207.97-.11.51-1.78 1.052-3.532 1.75-5.25l-.97.11c-.446 1.23-.74 2.47-1 3.75-.083.41.87.212.97-.11.54-1.765 1.207-3.485 1.75-5.25.116-.38-.85-.208-.97.11-.735 1.972-1.418 3.917-1.75 6-.065.41.822.213.937-.035.724-1.56 1.276-3.188 2-4.75.208-.447-.752-.333-.904-.04-.822 1.586-1.67 3.06-2.03 4.826-.092.446.802.142.936-.035 1.22-1.602 1.927-3.307 2.032-5.325.023-.456-.788-.16-.937.036-1.23 1.613-1.952 3.393-2.53 5.325-.122.405.75.158.874.038 1.892-1.803 2.965-4.14 3.593-6.648.106-.426-.748-.14-.875-.037-1.68 1.342-2.28 3.34-2.593 5.398-.07.458.797.14.936-.035 1.823-2.29 2.57-5.11 3.532-7.825l-.97.11c-.44 1.52-1.757 8.8-3.973 8.42-.22-.038-.963.106-.74.47.457.738.198.518.75 1 .197.17.933.098.933-.25v-4.5c0-.413-.816-.23-.937.036-.243.54-.27.972-.28 1.575l.966-.184c-.066-1.95-.6-4.048.21-5.903.635-1.448 2.03-2.52 2.76-3.948.194-.382-.47-.312-.65-.236-.377.16-.638.337-.944.623l.843.112c.746-.494 1.49-.99 2.237-1.483.47-.088.784-.695.122-.572-1.505.28-2.585.538-3.263 2.017-.212.463.668.276.844.112.156-.165.34-.29.555-.377-.217-.08-.433-.157-.65-.236-.83 1.626-2.267 2.827-3 4.5-.706 1.613-.086 3.97-.03 5.648.01.327.962.138.967-.185-.032-.488.04-.963.218-1.425l-.937.036v4.5c.31-.082.62-.166.932-.25-.353-.306-.52-.628-.75-1l-.74.472c3.827.655 4.818-6.648 5.527-9.082.11-.383-.854-.212-.97.11-.942 2.663-1.68 5.43-3.467 7.676l.937-.036c.293-1.935.816-3.83 2.407-5.102l-.875-.037c-.6 2.393-1.6 4.63-3.408 6.353l.875.037c.56-1.87 1.277-3.613 2.468-5.175l-.937.036c-.102 1.95-.79 3.63-1.968 5.176l.937-.036c.347-1.7 1.178-3.15 1.968-4.675l-.904-.04c-.723 1.562-1.275 3.19-2 4.75.313-.01.625-.023.938-.035.33-2.084 1.014-4.03 1.75-6l-.97.11c-.54 1.766-1.207 3.486-1.75 5.25l.97-.11c.26-1.28.554-2.52 1-3.75.13-.36-.838-.21-.97.11-.696 1.718-1.238 3.47-1.75 5.25l.97-.11c.21-1.96.233-3.867 0-5.823l-.967.258c.39.747.337.678.787 1.315.177.25 1.05.01.93-.323-.446-1.23-.74-2.47-1-3.75l-.966.258c.606 1.155 1.277 2.254 2.037 3.315.18.252 1.082-.02.93-.323l-2.25-4.5-.93.323c1.01 1.375 1.715 2.91 2.464 4.435.164.33 1.075.108.967-.258-.48-1.634-1.02-3.21-1.75-4.75l-.93.323c.797 1.363 1.554 2.73 2.5 4 .183.245 1.036.02.93-.323-.542-1.765-1.208-3.486-1.75-5.25l-.93.323c.797 1.363 1.554 2.73 2.5 4 .183.244 1.042.02.93-.323-.526-1.61-1.038-3.21-1.75-4.75l-.93.323c.962 1.495 1.752 3.06 2.464 4.685l.967-.258c-.76-1.616-1.354-3.286-2.286-4.815-.178-.293-1.114.023-.894.39.753 1.244 1.518 2.42 2.5 3.5.195.213 1.056.027.93-.324-.543-1.517-1.207-2.984-1.75-4.5l-.93.323c.733 1.024 1.38 2.068 1.964 3.186.176.337 1.112.068.966-.258-.497-1.108-.894-2.287-1-3.5l-.93.323 1.5 2.25c.17.258 1.06.002.93-.322-.42-1.063-.58-2.188-1-3.25l-.93.323c.497.807.88 1.564 1.214 2.436.136.356 1.083.09.966-.258-.29-.858-.615-1.68-1-2.5l-.93.323c.39.606.86 1.145 1.25 1.75.175.273.993.02.93-.322-.152-.835-.098-1.666-.25-2.5l-.667.42c.776.1.67.118 1.372-.005.33-.06.868-.514.245-.577-1.647-.165-3.06.35-4.488 1.13.23.086.462.17.694.254 1.105-.272 2.21-.545 3.317-.816.12-.188.236-.375.354-.563-2.224.17-3.98 1.276-5.865 2.377l.607.32 1.016-.4-.374-.42-.75.5c.23.085.462.17.694.253l.75-.75c.41-.41-.475-.39-.695-.253-.633.39-1.023 1.01-1.4 1.64-.048.083-.04.136.006.215.554.976.946 2.024 1.5 3l.895-.39c-1.138-.945-2.2-1.954-3.25-3-.234-.232-1.14.028-.894.39.838 1.233 1.912 2.267 2.75 3.5.195.286 1.122-.03.895-.39-.77-1.213-1.63-2.353-2.5-3.5-.21-.277-1.138.05-.894.39.838 1.165 1.628 2.36 2.5 3.5.183.24 1.062.01.93-.323-.58-1.474-1.448-2.73-2.286-4.066l-.895.39c.87 1.145 1.728 2.285 2.5 3.5.167.26 1.058-.002.93-.324-.58-1.473-1.448-2.73-2.286-4.065l-.896.39c.54.8 1.095 1.54 1.75 2.25.197.212 1.097-.01.93-.324-.837-1.584-1.807-3.003-3.036-4.314-.195-.208-1.08-.015-.93.323.54 1.225 1.144 2.307 2.036 3.314.227.256 1.104-.01.895-.39-.766-1.378-1.755-2.535-2.75-3.75-.224-.28-1.15.067-.893.383z"/>
  <path fill="#FFF" d="M97.224 126.08c-1.273 1.307-2.125 2.888-2.593 4.648-.1.38.877.238.97-.11.438-1.644 1.217-3.13 2.407-4.352.402-.415-.544-.433-.783-.187zM66.598 118.043c-.006-1.397-.112-2.653-.5-4l-.938.294c1.35 1.355 2.24 2.698 2.972 4.464.322-.085.644-.17.966-.257-.623-1.2-1.325-2.306-2.1-3.41-.572-.82-.4-1.67-.4-2.65 0-.16-.966-.02-.966.26v2.56l.966-.26c-.054-.448-.475-1.548-.045-1.905l-.92.164c.52 1.64.925 3.277 1 5 .01.214.884-.048.96-.214.52-1.15.897-2.284 1.005-3.544l-.966.258v6c0 .188.896-.02.96-.214.495-1.508.907-2.958 1.005-4.544l-.966.258c-.002 2.008-.07 3.983-.493 5.956-.047.222.894.066.953-.17.462-1.844.922-3.688 1.5-5.5-.32.07-.64.143-.96.214-.06 2.525-.5 4.984-.993 7.456-.044.225.904.067.953-.17.46-2.25 1.015-4.417 2-6.5l-.953.17c-.425 2.358-.532 4.78-1.5 7 .32-.07.64-.143.96-.214.065-1.89.526-3.64.993-5.456l-.953.17c-.462 1.844-.922 3.688-1.5 5.5.32-.07.64-.143.96-.214.055-2.458.614-4.678 1.493-6.956-.32.07-.64.143-.96.214-.07 2.045-.502 3.98-.993 5.956.32-.07.64-.143.96-.214v-6.5c0-.162-.96-.02-.967.258-.065 2.192-.557 4.315-.994 6.456.32-.07.64-.143.96-.214.056-2.365.438-4.66.993-6.956l-.954.17c-.432 1.985-.568 4.015-1 6 .32-.07.64-.143.96-.214v-8c0-.16-.967-.02-.967.258v3c0 .16.965.02.965-.258v-4.5c0-.172-.924-.002-.96.214-.22 1.336-.452 2.69-.505 4.044l.966-.258c-.106-1.345-.42-2.65-.5-4-.012-.2-.9.025-.96.214-.36 1.16-.638 2.34-1 3.5.32-.07.64-.143.96-.214v-3.5c0-.16-.966-.02-.966.258v6.53c0 .16.966.02.966-.26v-5.028c0-.163-.957-.018-.966.258-.07 2.045-.503 3.98-.994 5.956.32-.07.64-.143.96-.214 0-2.023.043-3.97.493-5.956.05-.23-.865-.042-.954.17-.483 1.146-.6 2.38-.985 3.55.32-.07.64-.143.96-.214-.17-.597.987-2.61 1.183-3.298.254-.89.28-1.834.303-2.752.004-.176-.903.01-.96.214-1.2 4.316-3.86 8.053-4.505 12.544-.018.13.905.022.96-.214 1.043-4.406 2.79-8.556 5-12.5.074-.13-.816-.074-.953.17-2.21 3.944-3.957 8.093-5 12.5.32-.07.64-.143.96-.214.64-4.46 3.3-8.17 4.493-12.456-.32.07-.64.143-.96.214-.03 1.354-.225 2.572-.66 3.845-.16.472-.952 1.762-.824 2.206.064.225.9-.032.96-.214.383-1.173.5-2.405.984-3.552l-.953.17c-.454 2.006-.504 3.992-.506 6.044 0 .18.91-.01.96-.214.498-2.006.936-3.975 1.006-6.044l-.966.258v5.03c0 .16.966.02.966-.26v-6.528c0-.16-.966-.02-.966.258v3.5c0 .186.898-.02.96-.214.36-1.16.638-2.34 1-3.5-.32.07-.64.143-.96.214.078 1.35.394 2.656.5 4 .015.188.956 0 .966-.258.052-1.327.278-2.647.494-3.956-.32.07-.64.143-.96.214v4.5c0 .16.967.02.967-.258v-3c0-.16-.966-.02-.966.258v8c0 .176.915-.004.96-.214.432-1.985.568-4.015 1-6 .048-.22-.896-.068-.953.17-.563 2.333-.95 4.64-1.006 7.044-.003.168.917.002.96-.214.443-2.174.94-4.32 1.006-6.544l-.966.258v6.5c0 .18.91-.01.96-.214.497-2.006.935-3.975 1.005-6.044.006-.186-.888.027-.96.214-.893 2.317-1.45 4.56-1.505 7.044-.004.18.896-.017.96-.214.577-1.812 1.037-3.655 1.5-5.5.052-.212-.892-.072-.954.17-.475 1.85-.94 3.63-1.006 5.544-.007.192.883-.037.96-.214.97-2.225 1.073-4.637 1.5-7 .044-.248-.86-.027-.954.17-.985 2.083-1.538 4.25-2 6.5l.953-.17c.498-2.508.944-4.982 1.005-7.544.004-.18-.896.017-.96.214-.577 1.812-1.037 3.655-1.5 5.5l.954-.17c.427-1.998.502-4.005.505-6.044 0-.165-.95-.015-.966.258-.1 1.585-.504 2.966-.995 4.456.32-.07.64-.143.96-.214v-6c0-.168-.944-.01-.967.258-.107 1.252-.48 2.327-.994 3.456.32-.07.64-.143.96-.214-.076-1.724-.48-3.362-1-5-.08-.252-.808.07-.92.164-.578.48-.124 1.45-.046 2.094.023.195.966-.003.966-.258v-2.56c0-.16-.966-.022-.966.258 0 .987-.164 1.82.4 2.65.76 1.115 1.476 2.207 2.1 3.41.118.227 1.04-.078.966-.26-.762-1.834-1.637-3.138-3.028-4.535-.137-.137-1 .08-.938.294.388 1.35.493 2.605.5 4 .004.163.97.02.97-.257z"/>
  <path fill="#030405" d="M91.305 139.993c-2.324 1.883-3.125 4.836-3.176 7.73-.01.454.964.273.97-.1.047-2.632.68-5.533 2.825-7.27.51-.414-.288-.63-.62-.36zM116.162 112.843c2.102 1.642 2.928 3.842 2.97 6.458.003.204.97.046.966-.257-.043-2.658-.908-4.887-3.03-6.542-.225-.174-1.087.203-.906.343z"/>
  <path fill="#FFF" d="M109.098 104.543v-1c0-.3-.966-.116-.966.26v1c0 .3.966.115.966-.26z"/>
  <path fill="#060709" d="M106.72 101.867c2.97 1.093 5.82.16 7.834-2.224.21-.25-.723-.125-.878.06-1.65 1.95-3.726 2.674-6.166 1.775-.225-.082-1.097.275-.79.39z"/>
  <path fill="#040507" d="M60.865 143.278c-4.66-4.054-3.396-11.267-1.47-16.316 1.168-3.062 3.18-5.548 4.727-8.39 1.108-2.036 1.63-5.09-.007-6.98-.2-.23-1.122.107-.9.362 2.398 2.77.054 6.792-1.597 9.244-1.76 2.613-3.08 5.338-4.04 8.345-1.44 4.527-1.494 10.723 2.386 14.1.238.205 1.133-.164.9-.365z"/>
  <path fill="#FFF" d="M65.673 113.15c.19.63.248 1.283.313 1.937.012.118.498.02.483-.13-.088-.903-.36-1.76-.626-2.624-.04-.13-.505-.008-.483.13.082.502.222.99.25 1.5l.484-.13c-.083-.682-.274-1.292-.703-1.835-.07-.09-.506.027-.467.15.255.81.526 1.58.5 2.44l.483-.13c-.104-1.104-.577-2.148-1.188-3.063-.09-.135-.537.048-.483.13.61.914 1.084 1.958 1.188 3.062.012.123.48.016.483-.13.026-.858-.245-1.63-.5-2.437l-.468.15c.418.53.59 1.13.672 1.79.015.123.492.02.483-.128-.03-.51-.17-.997-.25-1.5l-.483.13c.268.862.54 1.72.625 2.624l.483-.13c-.065-.652-.124-1.306-.313-1.937-.04-.134-.52 0-.482.13z"/>
  <path fill="#FFF" d="M64.235 111.524c.616 1.547.858 3.153.875 4.813 0 .128.485.042.483-.13-.017-1.66-.26-3.265-.875-4.812-.06-.152-.535-.004-.483.13zM66.11 116.586c.283 1.408.667 2.79 1 4.188.05.206.488.113.486-.083-.013-1.166-.076-2.32-.19-3.482-.02-.21-.485-.11-.486.083-.01 1.414.203 2.698.815 3.984.102.214.5.105.483-.13-.096-1.315-.31-2.593-.625-3.874-.057-.23-.506-.096-.483.13.184 1.804.594 3.534 1.396 5.166.09.186.495.027.463-.17-.168-1.03-.593-1.97-.75-3l-.484.128c.518 1.96 1.02 3.904 1.875 5.75.096.204.543.104.484-.13-.158-.627-.342-1.246-.5-1.874l-.483.13c.256.807.42 1.634.69 2.437l.482-.13c-.47-1.203-.888-2.412-1.24-3.655-.18-.63-1.304-5.406.047-4.866.108.044.394-.02.383-.182-.05-.76-.262-1.165-.71-1.775-.148.07-.296.14-.443.212.413.505.806.97 1.285 1.408.115.104.504-.017.428-.204-.25-.607-.54-1.11-.896-1.667-.118-.185-.577-.002-.442.212.346.548.717 1.077 1.063 1.625.103.163.553.02.463-.17-.3-.636-.633-1.203-1.02-1.793-.12-.184-.563-.01-.442.213.328.607.672 1.205 1 1.813.093.172.526.03.463-.17-.183-.486-.308-.986-.374-1.5l-.463.17c.85 1.002 1.16 1.988 1.227 3.287.013.254.5.178.49-.037-.07-1.345-.397-2.43-1.274-3.463-.125-.147-.504-.05-.463.17.066.516.19 1.016.375 1.5l.463-.17c-.327-.607-.67-1.205-1-1.813l-.44.213c.377.54.704 1.108.978 1.708l.463-.17c-.345-.55-.716-1.078-1.062-1.626-.147.07-.295.14-.442.212.344.494.63 1.02.854 1.583.143-.067.285-.136.428-.204-.44-.415-.845-.862-1.215-1.34-.137-.168-.592.008-.442.212 1.1 1.495.734 1.25-.07 1.093-.11-.02-.323.058-.327.194-.098 3.184.728 6.16 1.878 9.107.085.216.558.09.484-.13-.27-.803-.433-1.63-.688-2.437-.07-.222-.54-.096-.483.13.158.627.342 1.246.5 1.874l.483-.13c-.854-1.846-1.358-3.788-1.875-5.75-.06-.226-.517-.097-.482.13.16 1.03.584 1.973.75 3l.463-.17c-.788-1.606-1.173-3.314-1.353-5.084l-.483.13c.315 1.28.53 2.558.625 3.874l.482-.13c-.605-1.27-.82-2.478-.81-3.89l-.486.082c.112 1.13.172 2.257.185 3.392l.487-.083c-.333-1.396-.717-2.78-1-4.188-.05-.224-.533-.1-.487.13z"/>
  <path fill="#030405" d="M62.86 111.444c2.715 3.152 6.287 4.794 10.16 6.107.398.136 1.14-.437.564-.632-3.756-1.272-7.204-2.836-9.838-5.893-.277-.32-1.197.058-.887.42z"/>
  <path fill="#040507" d="M144.647 120.625c5.478 3.396 6.708 10.92 7.01 16.838.19 3.718-.354 7.25-1.12 10.88-.888 4.218-.444 8.39-1.786 12.576-.062.195.875.078.954-.17 1.347-4.203.984-8.306 1.787-12.574.66-3.506 1.232-6.765 1.156-10.347-.13-6.095-1.46-14.047-7.09-17.535-.236-.148-1.044.247-.91.33z"/>
  <path fill="#040507" d="M145.668 120.706c7.08-1.76 11.72-8.54 15.76-14.108.26-.36-.714-.283-.9-.025-3.833 5.286-8.272 11.972-14.992 13.642-.585.144-.45.635.132.49z"/>
  <path fill="#040507" d="M145.427 120.442c4.99-2.486 9.46-5.724 13.194-9.88.395-.437-.543-.478-.787-.206-3.628 4.037-7.954 7.204-12.806 9.62-.596.3-.053.69.4.466z"/>
  <path fill="#040507" d="M158.994 109.93l.375-.375c.408-.41-.54-.436-.784-.19l-.375.374c-.41.408.54.434.784.19z"/>
  <path fill="#DCDDDF" d="M152.67 120.63c.388 0 1.018-.59.364-.59-.388 0-1.018.59-.364.59zM151.247 120.03c-.143.502-.127 1.04-.127 1.56 0 .273.903.045.963-.2.13-.517.236-1.024.252-1.56.008-.28-.888-.027-.963.2l-.375 1.124.963-.198c.015-.486.133-.97.248-1.44.085-.35-.848-.09-.96.14l-.376.75.96-.14c.102-.288.227-.568.25-.875.03-.383-.798-.074-.925.076-.173.206-.29.45-.41.688l.963-.198c0-.11.01-.19.062-.288-.1.08-.2.157-.298.236.02-.01.04-.018.06-.026-.208-.055-.417-.108-.627-.162-.18.318-.4.596-.535.938-.106.27.846.153.96-.14.118-.296.31-.535.466-.81.19-.34-.488-.225-.628-.163-.336.15-.42.315-.425.673-.004.317.873-.018.963-.198.1-.198.196-.392.34-.562-.31.024-.617.05-.926.075-.024.307-.15.587-.25.875-.107.308.84.106.96-.14l.376-.75-.96.14c-.126.514-.237 1.03-.253 1.56-.008.28.888.03.963-.198l.375-1.125-.963.198c-.015.492-.13.965-.248 1.44l.963-.198c0-.482-.01-.973.123-1.44.085-.3-.878-.157-.96.14z"/>
  <path fill="#DCDDDF" d="M147.393 120.86c.124-.03.247-.063.37-.096.118-.024.882-.378.402-.378-.194 0-.897.338-.56.247.54-.145 1.01-.347 1.522-.565 1.147-.49 2.18-1.264 3.162-2.02.247-.19-.61-.085-.717-.03-1.656.865-3.233 1.856-5.014 2.455-.047.016-.435.177-.29.276.35.182.642.432.876.75l.91-.33c-.262-.25-.554-.46-.875-.626-.207-.126-1.068.205-.91.33 3.46 2.705 5.7 7.602 5.848 11.964.006.18.945.004.966-.258.362-4.47-1.042-8.72-1.5-13.125-.012-.12-.337-.06-.394-.05-.608.083-.976.158-1.54.426-.213.116-.42.24-.625.37l.82-.068c.425-.29.842-.593 1.25-.907.393-.294-.573-.155-.74-.03-.867.64-1.646 1.254-2.672 1.653-.08.03-.4.145-.288.276.834.98 1.697.222 2.057-.75.068-.185-.854-.068-.953.17-.182.356-.307.73-.376 1.125-.065.26.843-.018.953-.17.253-.306.462-.64.625-1-.318.056-.635.112-.953.17-.243.43-.41.888-.5 1.374-.073.26.81-.02.913-.12.567-.562.85-1.044 1.164-1.8.076-.184-.834-.045-.953.17-.39.707-.666 1.343-.875 2.125-.067.25.81 0 .913-.12.552-.66.978-1.305 1.414-2.05-.318.056-.635.112-.953.17-.396.87-.81 1.72-1.125 2.624-.078.22.836.01.952-.17.526-.818 1.016-1.655 1.5-2.5l-.953.17c-.32.925-.71 1.815-1 2.75-.073.23.84.01.952-.17.488-.775.927-1.575 1.375-2.375-.318.056-.635.112-.953.17-.392.956-.816 1.886-1.125 2.874-.07.222.842.022.952-.17.38-.664.746-1.335 1.125-2l-.953.17c-.273.84-.576 1.667-.875 2.5-.08.222.834.003.952-.17.32-.44.612-.898.875-1.375-.318.056-.635.112-.953.17-.175.584-.3 1.17-.5 1.75-.067.194.854.06.953-.17.134-.417.342-.792.625-1.126l-.953.17c-.11.596-.206 1.167-.376 1.75-.06.207.866.062.953-.17l.375-1c-.32.07-.64.143-.96.214.017.588-.024 1.17-.124 1.75-.025.21.868-.09.96-.214l.374-.5c-.32.07-.64.143-.96.214.017.547-.025 1.088-.124 1.625l.966-.258c-.482-2.217-1.624-5.083-.38-7.206.112-.193-.6-.046-.645-.027-1.2.472-.125.296.287.002l-.808.02-.626.625c-.207.207.71.094.875-.07.207-.21.416-.417.624-.625.23-.23-.68-.07-.808.02-.292.21-.583.417-.875.625-.405.29.513.147.65.08l1.014-.453c-.215-.01-.43-.018-.644-.026-1.272 2.175-.123 5.038.37 7.295.048.227.936-.03.965-.258.1-.538.14-1.08.125-1.625.005-.236-.87.096-.96.214l-.374.5c.32-.07.64-.143.96-.214.1-.58.14-1.163.124-1.75.003-.19-.89.027-.96.214l-.374 1 .953-.17c.168-.583.266-1.153.374-1.75.05-.275-.846.016-.953.17-.28.333-.49.708-.624 1.125.318-.056.635-.112.953-.17.198-.576.324-1.163.5-1.75.068-.23-.844-.014-.954.17-.263.477-.555.936-.875 1.376l.954-.17c.298-.832.602-1.658.875-2.5.07-.218-.843-.024-.954.17-.38.664-.746 1.335-1.125 2l.954-.17c.31-.988.733-1.917 1.125-2.875.076-.186-.835-.04-.954.17-.448.8-.887 1.6-1.375 2.376l.954-.17c.29-.935.682-1.825 1-2.75.073-.212-.84-.026-.953.17-.483.844-.973 1.68-1.5 2.5l.954-.17c.315-.904.73-1.754 1.125-2.625.078-.172-.83-.044-.954.17-.376.696-.82 1.347-1.336 1.95l.914-.12c.208-.78.484-1.416.875-2.124l-.954.17c-.2.663-.56 1.23-1.086 1.7l.914-.12c.09-.485.258-.944.5-1.375.076-.162-.83-.06-.953.17-.162.362-.37.695-.624 1 .318-.056.635-.112.953-.17.067-.393.192-.768.374-1.124l-.953.17c-.39 1.056-.01.43.47.14.51-.28.994-.6 1.45-.957-.23-.022-.458-.045-.688-.066-.425.29-.842.593-1.25.907-.398.3.577.143.74.032 1.528-1.03 1.568.625 1.745 1.727.186 1.16.43 2.312.65 3.468.445 2.344.694 4.66.5 7.043.323-.085.645-.17.967-.257-.15-4.396-2.404-9.3-5.903-12.036l-.91.33c.322.167.614.375.876.625.183.15 1.068-.16.91-.33-.693-.748-.437-.715.424-1.08 1.254-.534 2.447-1.312 3.65-1.94l-.716-.03c-1.29.993-2.706 2-4.348 2.286-.13.02-.875.378-.402.378.307 0 1.465-.476.647-.225-.552.17-.477.473.083.3zM152.12 146.463l-.244 1.082c.32-.07.64-.144.96-.215.004-.64.035-1.243.124-1.875.02-.13-.892-.003-.96.215-1.006 3.26-.546 6.567-.506 9.918.002.155.97.013.966-.258-.04-3.32-.506-6.596.493-9.832-.32.07-.64.144-.96.215-.088.633-.12 1.237-.124 1.875-.002.173.9-.02.958-.215.208-.682.16-.474.257-1.168.015-.11-.925-.032-.966.258z"/>
  <path fill="#DCDDDF" d="M152.376 132.922l-.053.203.958-.217c.01-.235.035-.47.054-.703.01-.14-.893.02-.958.217-.146.44-.114.288-.132.79.322-.085.644-.17.966-.257.006-.16-.006-.316-.037-.473-.03-.212-.833.077-.918.172-.065.072-.135.116-.135.215 0 .138.966.005.966-.26v-.155c0-.14-.96-.005-.966.258-.063 3.386.54 6.746.15 10.126-.377 3.257-.99 6.466-1.15 9.748-.006.125.953.014.966-.258.16-3.278.73-6.5 1.15-9.75.435-3.37-.212-6.748-.15-10.125l-.966.258v.156c0 .138.966.005.966-.26l.04-.04-.917.17c.03.157.042.314.036.473.003.147.957 0 .966-.258.04-.236.08-.473.118-.71l-.958.218c-.02.235-.045.47-.053.703-.006.146.905-.017.957-.217l.053-.204c.045-.184-.893-.055-.954.176zM98.28 138.025c.474.485.9 1.016 1.374 1.5.242.248 1.16-.112.896-.38-.475-.486-.9-1.017-1.375-1.5-.242-.25-1.16.11-.896.38z"/>
  <path fill="#DCDDDF" d="M93.744 134.463c2.034 4.17 6.667 5.616 9.982 8.512.26.226.774-.028.863-.31.236-.74.623-1.394 1.16-1.957l-.857-.166c-.27.53-.547 1.328-.94 1.793-.39.46.537.557.798.248.478-.563.726-1.302 1.06-1.957.237-.464-.663-.412-.858-.166-.576.726-1.056 1.403-1.338 2.293l.863-.31c-3.197-2.792-7.808-4.22-9.768-8.238-.193-.396-1.144-.106-.966.258zM103.143 131.29c-.202.344-.47.63-.625 1l.947.003c.13-.528.47-.94.72-1.413l-.902.162c.146.23.354.397.5.625.168.26.686.107.844-.08.128-.15.615-.79.85-.61.317.245 1.178-.206.75-.534-.816-.627-1.89.285-2.4.89l.844-.08c-.145-.228-.353-.396-.5-.624-.188-.296-.77-.083-.902.16-.285.534-.63.99-.78 1.588-.108.44.82.307.948.003.155-.368.424-.657.625-1 .267-.452-.716-.432-.917-.09zM96.796 125.174l.012.008c.544-.02.748-.72.09-.695-.29.01-.506.093-.74.258-.537.377.256.7.638.43z"/>
  <g>
    <path fill="#DCDDDF" d="M96.693 125.25c2.977-1.11 6.956 2.746 7.676 5.338.125.456 1.09.196.965-.258-.927-3.338-5.5-6.995-9.074-5.663-.62.232-.07.772.433.584z"/>
  </g>
  <g>
    <path fill="#DCDDDF" d="M105.3 129.083c3.414-4.775 9.258 1.16 6.855 5.502-.21.38.752.253.894-.002 1.376-2.488.642-5.61-1.883-7.08-2.435-1.416-5.154-.666-6.76 1.582-.244.34.722.236.892-.002z"/>
  </g>
  <g>
    <path fill="#DCDDDF" d="M108.92 128.458c-1.61.113-2.506 1.248-3.7 2.19l.83.058c.29-.465.538-.95.784-1.44.146-.29-.752-.103-.863.008l-.75.75.864-.007c.13-.29.244-.586.375-.875.117-.26-.83-.157-.963.135-.13.29-.244.586-.375.875l.554-.31-.072.014.41.113c-.037-.092-.05-.168-.053-.265-.01-.313-.884-.02-.963.196-.145.396-.193.65-.127 1.063.037.23.556.095.667.045.99-.442 1.845-1.083 2.75-1.668.56-.362 1.136-.584 1.75-.832.303-.123.342-.406.573-.613.103-.09.153-.207.005-.28l-.25-.126c-.255-.128-.743.04-.87.287-.255.506-.235 1.017-.126 1.562.06.298 1.03.06.965-.26-.1-.504-.114-.97.123-1.437l-.87.288.25.126.006-.28c-.234.208-.36.33-.474.627.14-.095.282-.188.423-.283-1.73.55-2.998 1.813-4.626 2.542l.667.045c-.068-.424-.01-.573.123-.938l-.964.195c.003.098.016.174.053.264.057.142.29.136.41.112.694-.13.73-.6 1-1.198.12-.26-.83-.157-.96.135-.132.288-.245.585-.376.874-.138.306.754.103.863-.007l.75-.75-.863.007c-.224.446-.45.888-.715 1.31-.245.392.69.17.83.06.726-.574 1.57-1.74 2.548-1.81.322-.026 1.033-.55.388-.506z"/>
  </g>
  <g>
    <path fill="#DCDDDF" d="M152.71 119.525v-.875c0-.4-.705-.167-.87-.022-.405.353-.847.65-1.25 1l.87.022c.095-.29.154-.585.25-.875.126-.385-.755-.125-.87-.022-.302.268-.56.51-.814.82l.9.023c.244-.337.52-.635.813-.93.42-.424-.556-.336-.776-.164-1.014.795-2.36 1.176-3.063 2.32-.115.188.098.293.264.288.93-.024 1.442-.2 1.795-1.086.082-.208-.318-.228-.42-.21-.698.112-1.162.21-1.702.687-.35.31.253.377.453.328.406-.1.746-.276 1.11-.474.38-.205.078-.465-.234-.417-.364.056-1.207.116-1.298.58-.043.222.285.22.418.21 1.598-.117 2.677-1.214 3.99-1.998-.26-.03-.522-.06-.784-.088-.138.327-.256.642-.467.93-.254.346.513.268.642.212 1.096-.467 2.178-.94 3.07-1.744.42-.378-.54-.376-.774-.164-.78.703-1.726 1.1-2.68 1.506.215.07.43.142.643.213.245-.334.373-.692.533-1.07.145-.347-.69-.145-.785-.088-1.042.623-1.995 1.658-3.26 1.75l.418.212c-.048.242-.086.123.202.08-.08-.14-.157-.278-.235-.418-.213.093-.427.185-.64.276.15.11.302.218.453.327.234-.196.5-.3.797-.312l-.418-.21c-.036.244-.188.382-.455.413l.263.288c.64-1.044 2-1.444 2.938-2.18l-.775-.164c-.34.343-.655.68-.938 1.07-.27.373.714.25.9.023.21-.245.44-.473.688-.68l-.87-.022c-.096.292-.155.586-.25.876-.127.387.755.122.87.022.404-.353.846-.65 1.25-1l-.87-.022v.875c0 .412.967.205.967-.115z"/>
  </g>
  <g>
    <path fill="#FFF" d="M109.492 125.01c-.01.033-.022.064-.033.097-.405.425.538.467.786.205.12-.126.208-.226.217-.404.02-.44-.953-.26-.97.103z"/>
  </g>
  <g>
    <path fill="#FFF" d="M109.535 125.1c-.354.437.37.355.617.337.215-.016.492-.073.643-.244.147-.168-.126-.22-.242-.21-.058.003-.116.008-.174.015-.27.033.086.014.04.07.23-.283-.72-.17-.885.033z"/>
  </g>
  <g>
    <path fill="#FFF" d="M110.31 125.57c.557 0 .74-.72.084-.72-.557 0-.738.72-.083.72z"/>
  </g>
  <g>
    <path fill="#FFF" d="M110.554 125.45c.075-.035.175-.098.26-.07l.466-.607c-.462 0-.905.125-1.375.125-.227 0-.51.064-.633.28-.112.196.095.345.278.345.266 0 .53-.003.795-.018.182-.01.433-.107.58-.107.273 0 1.043-.426.465-.606-.41-.128-.864-.003-1.24.178-.6.286-.057.702.404.48z"/>
  </g>
  <g>
    <path fill="#FFF" d="M148.342 161.676c.035-.13.08-.258.13-.382.053-.136.23-.257.05-.183-.163.014-.328.026-.492.038l.046.02c.422.178 1.124-.428.553-.668-.774-.326-1.12.71-1.268 1.242-.132.475.86.37.98-.066z"/>
  </g>
  <g>
    <path fill="#FFF" d="M147.862 161.37l-.07.313c-.104.495.875.355.98-.07.123-.484.195-1.02.418-1.47l-.953-.024c-.095.415-.156.833-.25 1.25l.98-.07c.485-2.9.73-5.81.75-8.75.002-.516-.978-.377-.98.07-.018 2.94-.264 5.85-.75 8.75-.085.507.883.355.98-.07.094-.415.155-.833.25-1.25.11-.49-.803-.328-.954-.024-.25.503-.335 1.117-.47 1.658l.98-.07c.02-.103.044-.208.068-.312.11-.486-.88-.372-.978.067z"/>
  </g>
  <g>
    <path fill="#FFF" d="M149.202 161.244c1.022-4.416.24-8.944.758-13.413.01-.088-.935-.013-.966.26-.515 4.44.274 8.946-.742 13.336-.04.172.898.04.95-.182z"/>
  </g>
  <g>
    <path fill="#040507" d="M107.912 126.184c.696-.142 1.286-.216 1.998-.216.34 0 1.037-.516.384-.518-.47-.002-.932-.005-1.393-.116l-.11.432c1.31-.5 2.866.463 3.738 1.378.22.23 1.136-.12.9-.37-1.282-1.343-3.226-2.053-5.012-1.37-.213.08-.462.347-.112.43.53.13 1.064.133 1.607.135l.385-.52c-.918 0-1.627.108-2.502.285-.59.12-.458.565.12.45z"/>
  </g>
  <g>
    <path fill="#040507" d="M106.792 126.872c3.43-.54 7.828-.76 8.203 3.717.03.347 1 .133.966-.26-.402-4.82-5.383-4.608-9.046-4.032-.478.075-.788.678-.122.574z"/>
  </g>
  <g>
    <path fill="#040507" d="M115.583 132.764c1.255-3.238-2.05-8.264-5.655-7.662-.43.072-.823.577-.15.465 3.224-.54 5.88 4.667 4.845 7.338-.104.264.847.148.96-.14z"/>
  </g>
  <g>
    <path fill="#040507" d="M109.278 125.23c-.08.02-.162.038-.244.057-.37.023-.838.59-.238.6 3.452.052 6.44 1.863 6.32 5.625-.014.44.96.256.97-.104.133-4.105-3.167-6.067-6.93-6.124l-.237.6c.302-.02.476-.072.755-.195.615-.27.06-.658-.397-.46z"/>
  </g>
  <g>
    <path fill="#040507" d="M115.717 132.05c.115-.498.125-.992.125-1.5 0-.517-.98-.378-.98.068 0 .51-.01 1.003-.124 1.5-.113.483.878.37.98-.068z"/>
  </g>
  <g>
    <path fill="#040507" d="M114.937 132.6l-.014.008.742-.07c-.024-.025.144-.697.164-.81.067-.38.122-.762.13-1.147.005-.235-.958-.078-.966.26-.01.464-.105.926-.19 1.382-.03.16-.168.532-.042.675.15.172.59.018.742-.07.005 0 .01-.004.014-.007.108-.06.313-.243.1-.323-.21-.08-.497 0-.68.103z"/>
  </g>
  <g>
    <path fill="#040507" d="M108.546 125.89c2.296-.226 4.22-.362 5.71 1.694 1.296 1.79 1.488 4.65-.298 6.144-.442.37.516.44.79.213 2.086-1.744 1.696-4.64.4-6.754-1.446-2.36-4.098-2.14-6.49-1.906-.502.05-.777.674-.112.61z"/>
  </g>
  <g>
    <path fill="#040507" d="M112.38 137.22c2.308-2.55 3.17-5.548 2.205-8.89-.126-.438-1.09-.176-.966.258.912 3.16.14 5.945-2.046 8.36-.408.45.52.59.806.273z"/>
  </g>
  <g>
    <path fill="#040507" d="M104.956 142.882c1.714-3.143 5.79-4.436 8.048-7.24 2.12-2.632 1.952-5.744.332-8.562-.154-.27-1.068.08-.966.258 2.134 3.712 1.24 7.063-1.744 9.99-2.114 2.073-5.147 2.996-6.626 5.708-.1.18.814.106.956-.154z"/>
  </g>
</svg>
