<?xml version="1.0" encoding="UTF-8"?>
<svg width="278px" height="191px" viewBox="0 0 278 191" version="1.1" xmlns="http://www.w3.org/2000/svg" xmlns:xlink="http://www.w3.org/1999/xlink">
    <!-- Generator: Sketch 64 (93537) - https://sketch.com -->
    <title>Group</title>
    <desc>Created with Sketch.</desc>
    <defs>
        <path d="M21.246,0.1135 L13.645,0.1135 L13.645,2.1906 C5.89,3.0216 0.343,6.603 0.343,9.14 C0.343,12.026 5.569,22.917 17.921,22.917 C31.084,22.917 34.548,12.026 34.548,9.14 C34.548,6.701 28.744,3.2967 21.246,2.299 L21.246,0.1135 Z" id="path-1"></path>
    </defs>
    <g id="17----Distance-learning" stroke="none" stroke-width="1" fill="none" fill-rule="evenodd">
        <g id="drom_mouse" transform="translate(-2.000000, -16.000000)">
            <g id="Group" transform="translate(2.013986, 16.304762)">
                <line x1="0.83728" y1="165.238" x2="275.819" y2="165.238" id="Path" stroke="#520E27" stroke-width="1.36575" stroke-linecap="round"></line>
                <rect id="Rectangle" stroke="#520E27" fill="#FFFFFF" fill-rule="nonzero" x="220.392" y="102.417" width="56.9585" height="4.70083" rx="0.5"></rect>
                <rect id="Rectangle" stroke="#520E27" fill="#FFFFFF" fill-rule="nonzero" x="224.192" y="161.325" width="3.75069" height="10.4017"></rect>
                <rect id="Rectangle" stroke="#520E27" fill="#FFFFFF" fill-rule="nonzero" x="267.899" y="161.325" width="3.75069" height="10.4017"></rect>
                <rect id="Rectangle" stroke="#520E27" fill="#F6BE97" fill-rule="nonzero" x="222.426" y="108.601" width="50.8576" height="50.8576"></rect>
                <rect id="Rectangle" stroke="#520E27" fill="#FFFFFF" fill-rule="nonzero" x="227.51" y="113.685" width="40.6894" height="40.6894"></rect>
                <circle id="Oval" stroke="#520E27" fill="#DD817A" fill-rule="nonzero" cx="247.346" cy="123.353" r="2.53363"></circle>
                <polygon id="Path" stroke="#520E27" fill="#DD817A" fill-rule="nonzero" points="228.288 76.7133 239.209 53.9598 257.571 53.9598 267.583 76.7133"></polygon>
                <path d="M251.246,79.1135 L243.645,79.1135 L243.645,81.1906 C235.89,82.0216 230.343,85.603 230.343,88.14 C230.343,91.026 235.569,101.917 247.921,101.917 C261.084,101.917 264.548,91.026 264.548,88.14 C264.548,85.701 258.744,82.2967 251.246,81.299 L251.246,79.1135 Z" id="Path" fill="#FFFFFF"></path>
                <g id="Clipped" transform="translate(230.000000, 79.000000)">
                    <mask id="mask-2" fill="white">
                        <use xlink:href="#path-1"></use>
                    </mask>
                    <g id="Path"></g>
                    <path d="M13.645,0.1135 L13.645,-0.8865 L12.645,-0.8865 L12.645,0.1135 L13.645,0.1135 Z M21.246,0.1135 L22.246,0.1135 L22.246,-0.8865 L21.246,-0.8865 L21.246,0.1135 Z M13.645,2.1906 L13.752,3.185 L14.645,3.0892 L14.645,2.1906 L13.645,2.1906 Z M21.246,2.299 L20.246,2.299 L20.246,3.1748 L21.115,3.2903 L21.246,2.299 Z M13.645,1.1135 L21.246,1.1135 L21.246,-0.8865 L13.645,-0.8865 L13.645,1.1135 Z M14.645,2.1906 L14.645,0.1135 L12.645,0.1135 L12.645,2.1906 L14.645,2.1906 Z M1.343,9.14 C1.343,8.862 1.507,8.394 2.071,7.773 C2.619,7.171 3.459,6.522 4.574,5.899 C6.799,4.6554 9.992,3.5878 13.752,3.185 L13.539,1.1963 C9.543,1.6244 6.085,2.7632 3.598,4.1527 C2.357,4.8462 1.326,5.62 0.591,6.428 C-0.127,7.219 -0.657,8.149 -0.657,9.14 L1.343,9.14 Z M17.921,21.917 C12.072,21.917 7.931,19.348 5.235,16.432 C3.882,14.968 2.897,13.421 2.255,12.078 C1.596,10.703 1.343,9.641 1.343,9.14 L-0.657,9.14 C-0.657,10.082 -0.256,11.464 0.451,12.942 C1.174,14.453 2.268,16.17 3.766,17.789 C6.771,21.04 11.418,23.917 17.921,23.917 L17.921,21.917 Z M33.548,9.14 C33.548,10.333 32.775,13.558 30.395,16.479 C28.063,19.343 24.184,21.917 17.921,21.917 L17.921,23.917 C24.821,23.917 29.256,21.045 31.946,17.742 C34.59,14.496 35.548,10.833 35.548,9.14 L33.548,9.14 Z M21.115,3.2903 C24.758,3.7752 27.966,4.8431 30.236,6.06 C31.374,6.671 32.241,7.299 32.809,7.881 C33.399,8.486 33.548,8.916 33.548,9.14 L35.548,9.14 C35.548,8.144 34.972,7.234 34.24,6.484 C33.485,5.71 32.432,4.9684 31.181,4.2979 C28.675,2.9538 25.232,1.8206 21.378,1.3078 L21.115,3.2903 Z M20.246,0.1135 L20.246,2.299 L22.246,2.299 L22.246,0.1135 L20.246,0.1135 Z" id="Shape" fill="#520E27" fill-rule="nonzero" mask="url(#mask-2)"></path>
                </g>
                <path d="M53.1688,41.9377 L61.5233,33.5833 M64.8488,30.2578 L62.9485,32.1581" id="Shape" stroke="#520E27" stroke-linecap="round"></path>
                <path d="M115.878,43.4613 L124.232,35.1068 M127.558,31.7814 L125.658,33.6816" id="Shape" stroke="#520E27" stroke-linecap="round"></path>
                <path d="M51.2686,47.6385 L60.2121,38.695 M69.5995,29.3076 L61.8674,37.0397" id="Shape" stroke="#520E27" stroke-linecap="round"></path>
                <path d="M113.978,49.1621 L122.921,40.2186 M132.308,30.8312 L124.576,38.5632 M136.781,26.5556 L133.799,29.5369" id="Shape" stroke="#520E27" stroke-linecap="round"></path>
                <rect id="Rectangle" stroke="#520E27" fill="#F6BE97" fill-rule="nonzero" x="14.7134" y="0.3531" width="134.87" height="142.471" rx="2.5"></rect>
                <rect id="Rectangle" stroke="#520E27" fill="#FFFFFF" fill-rule="nonzero" x="18.5142" y="4.1537" width="61.7091" height="65.5097" rx="2.5"></rect>
                <rect id="Rectangle" stroke="#520E27" fill="#FFFFFF" fill-rule="nonzero" x="18.5142" y="73.5139" width="61.7091" height="65.5097" rx="2.5"></rect>
                <rect id="Rectangle" stroke="#520E27" fill="#FFFFFF" fill-rule="nonzero" x="84.0735" y="4.1537" width="61.7091" height="65.5097" rx="2.5"></rect>
                <rect id="Rectangle" stroke="#520E27" fill="#FFFFFF" fill-rule="nonzero" x="84.0735" y="73.5139" width="61.7091" height="65.5097" rx="2.5"></rect>
                <line x1="77.3666" y1="189.939" x2="82.0282" y2="189.939" id="Path" stroke="#B2B2B2" stroke-width="0.8475" opacity="0.4" stroke-linecap="round"></line>
                <path d="M19.4475,186.423 C19.1961,186.423 18.9923,186.627 18.9923,186.879 C18.9923,187.13 19.1961,187.334 19.4475,187.334 L19.4475,186.423 Z M79.7164,187.334 C79.9679,187.334 80.1717,187.13 80.1717,186.879 C80.1717,186.627 79.9679,186.423 79.7164,186.423 L79.7164,187.334 Z M219.322,176.922 C219.07,176.922 218.867,177.126 218.867,177.377 C218.867,177.629 219.07,177.833 219.322,177.833 L219.322,176.922 Z M239.868,177.833 C240.119,177.833 240.323,177.629 240.323,177.377 C240.323,177.126 240.119,176.922 239.868,176.922 L239.868,177.833 Z M19.4475,187.334 L79.7164,187.334 L79.7164,186.423 L19.4475,186.423 L19.4475,187.334 Z M219.322,177.833 L239.868,177.833 L239.868,176.922 L219.322,176.922 L219.322,177.833 Z" id="Shape" fill="#B2B2B2" fill-rule="nonzero" opacity="0.4"></path>
                <line x1="49.5449" y1="189.939" x2="74.2004" y2="189.939" id="Path" stroke="#B2B2B2" stroke-width="0.8475" opacity="0.4" stroke-linecap="round"></line>
                <rect id="Rectangle" stroke="#520E27" fill="#FFFFFF" fill-rule="nonzero" x="36.7073" y="177.732" width="7.69719" height="5.49799" rx="1"></rect>
                <rect id="Rectangle" stroke="#520E27" fill="#FFFFFF" fill-rule="nonzero" x="193.95" y="177.732" width="7.69719" height="5.49799" rx="1"></rect>
                <path d="M37.7383,117.775 C37.7797,117.777 37.8169,117.778 37.8602,117.778 L45.0021,117.778 C48.0397,117.778 50.5021,120.24 50.5021,123.278 L50.5021,143.844 C50.5021,144.672 49.8306,145.344 49.0021,145.344 L39.8069,145.344 C38.9785,145.344 38.3069,144.672 38.3069,143.844 L38.3069,136.092 C38.3069,135.349 37.9832,134.652 37.4239,134.168 C36.0761,133.003 33.0755,130.315 30.71,127.535 C29.5244,126.141 28.5218,124.751 27.9595,123.535 C27.3823,122.287 27.3484,121.405 27.7612,120.852 C28.9505,119.257 31.2168,118.458 33.3846,118.078 C35.5241,117.704 37.4277,117.762 37.7383,117.775 Z" id="Path" stroke="#520E27" fill="#FFFFFF" fill-rule="nonzero"></path>
                <path d="M200.711,117.775 C200.67,117.777 200.633,117.778 200.59,117.778 L193.353,117.778 C190.315,117.778 187.853,120.24 187.853,123.278 L187.853,143.853 C187.853,144.682 188.524,145.353 189.353,145.353 L198.643,145.353 C199.471,145.353 200.143,144.682 200.143,143.853 L200.143,136.102 C200.143,135.356 200.469,134.657 201.032,134.173 C202.39,133.007 205.412,130.319 207.794,127.537 C208.989,126.143 209.998,124.752 210.565,123.536 C211.146,122.288 211.18,121.407 210.764,120.854 C209.566,119.258 207.28,118.458 205.096,118.078 C202.939,117.704 201.021,117.762 200.711,117.775 Z" id="Path" stroke="#520E27" fill="#FFFFFF" fill-rule="nonzero"></path>
                <path d="M33.2432,119.939 C33.335,119.947 33.4301,119.953 33.5329,119.953 L40.6035,119.953 C43.6411,119.953 46.1035,122.416 46.1035,125.453 L46.1035,176.832 C46.1035,177.66 45.432,178.332 44.6035,178.332 L35.4084,178.332 C34.5799,178.332 33.9084,177.66 33.9084,176.832 L33.9084,136.014 C33.9084,134.498 32.5909,133.382 31.2025,133.233 C29.9453,133.098 28.42,132.711 27.2173,131.739 C26.0377,130.785 25.1116,129.222 25.1116,126.601 C25.1116,124.767 25.5652,123.459 26.228,122.518 C26.8925,121.574 27.7932,120.962 28.7457,120.568 C30.669,119.773 32.7391,119.893 33.2432,119.939 Z" id="Path" stroke="#520E27" fill="#F6BE97" fill-rule="nonzero"></path>
                <path d="M205.111,119.939 C205.019,119.947 204.924,119.953 204.821,119.953 L197.75,119.953 C194.713,119.953 192.25,122.416 192.25,125.453 L192.25,176.832 C192.25,177.66 192.922,178.332 193.75,178.332 L202.946,178.332 C203.774,178.332 204.446,177.66 204.446,176.832 L204.446,136.014 C204.446,134.498 205.763,133.382 207.152,133.233 C208.409,133.098 209.934,132.711 211.137,131.739 C212.316,130.785 213.242,129.222 213.242,126.601 C213.242,124.767 212.789,123.459 212.126,122.518 C211.462,121.574 210.561,120.962 209.608,120.568 C207.685,119.773 205.615,119.893 205.111,119.939 Z" id="Path" stroke="#520E27" fill="#F6BE97" fill-rule="nonzero"></path>
                <path d="M71.6035,84.866 C57.5203,84.866 46.1035,96.282 46.1035,110.366 L46.1035,174.832 C46.1035,177.317 48.1182,179.332 50.6035,179.332 L187.751,179.332 C190.236,179.332 192.251,177.317 192.251,174.832 L192.251,110.366 C192.251,96.282 180.834,84.866 166.751,84.866 L71.6035,84.866 Z" id="Path" stroke="#520E27" fill="#FFFFFF" fill-rule="nonzero"></path>
                <path d="M60.6035,135.447 C52.5954,135.447 46.1035,141.939 46.1035,149.947 L46.1035,174.832 C46.1035,177.317 48.1182,179.332 50.6035,179.332 L187.751,179.332 C190.236,179.332 192.251,177.317 192.251,174.832 L192.251,149.947 C192.251,141.939 185.759,135.447 177.751,135.447 L60.6035,135.447 Z" id="Path" stroke="#520E27" fill="#DD817A" fill-rule="nonzero"></path>
                <rect id="Rectangle" stroke="#520E27" fill="#FFFFFF" fill-rule="nonzero" x="46.0679" y="144.675" width="146.271" height="17.0526" rx="3.5"></rect>
                <circle id="Oval" stroke="#520E27" fill="#DD817A" fill-rule="nonzero" cx="87.2886" cy="111.756" r="2.6992"></circle>
                <circle id="Oval" stroke="#520E27" fill="#DD817A" fill-rule="nonzero" cx="151.066" cy="111.756" r="2.6992"></circle>
                <path d="M118.807,120.356 C118.806,121.835 117.605,123.033 116.123,123.034 L116.123,123.034 C114.641,123.032 113.44,121.834 113.438,120.356 C113.44,118.878 114.641,117.68 116.123,117.679 C117.605,117.681 118.805,118.878 118.807,120.356 Z M117.624,120.356 C117.623,119.529 116.951,118.859 116.123,118.858 C115.294,118.859 114.622,119.529 114.621,120.356 C114.622,121.183 115.294,121.853 116.123,121.854 C116.951,121.853 117.623,121.183 117.624,120.356 Z" id="Shape" fill="#520E27"></path>
                <path d="M198.403,73.1935 C188.677,71.661 179.975,63.6523 178.168,54.2202 L178.167,54.2202 C176.11,43.4846 183.385,33.7558 195.662,33.928 C209.164,34.1176 220.27,45.8336 219.341,58.1398 C218.542,68.7245 208.875,74.8437 198.403,73.1935 Z M119.776,106.752 L118.478,112.253 L115.883,118.401 L154.382,146.967 L186.256,127.714 L182.063,111.93 L158.437,107.248 L130.295,108.542 L119.776,106.752 Z" id="Shape" fill="#FFFFFF"></path>
                <path d="M176.575,50.2444 C176.546,51.6569 176.664,53.0686 176.928,54.4568 L176.928,54.4564 C177.495,57.2196 178.61,59.8398 180.144,62.1531 C181.671,64.4732 183.594,66.4999 185.756,68.1818 C190.067,71.5617 195.383,73.5771 200.779,73.7705 C202.127,73.8087 203.476,73.7293 204.81,73.5332 C206.144,73.3298 207.454,72.9978 208.724,72.5421 C211.252,71.6094 213.612,70.1564 215.499,68.1879 C217.383,66.2233 218.764,63.7606 219.466,61.1076 C219.81,59.7801 219.994,58.4134 220.04,57.0462 C220.069,55.6775 219.96,54.3065 219.721,52.9594 C219.473,51.6138 219.097,50.2948 218.599,49.0202 C218.099,47.7482 217.474,46.5297 216.761,45.3687 C215.337,43.0412 213.487,40.9968 211.4,39.2633 C207.212,35.8037 201.924,33.6973 196.492,33.4161 C195.132,33.3365 193.767,33.3769 192.413,33.5367 C191.051,33.7033 189.708,34.0027 188.404,34.4304 C185.798,35.3048 183.32,36.7436 181.366,38.7718 C180.382,39.7842 179.529,40.9152 178.826,42.1386 C178.123,43.3655 177.582,44.6864 177.197,46.0505 C176.828,47.4199 176.62,48.8272 176.575,50.2444 Z M186.859,66.8793 C183.095,63.4 180.342,58.8668 179.407,53.9837 C179.169,52.7683 179.058,51.5316 179.076,50.2933 C179.083,49.0595 179.219,47.8275 179.501,46.628 C180.037,44.2246 181.133,41.9333 182.741,40.0203 C184.347,38.1088 186.47,36.5934 188.855,35.6766 C190.043,35.205 191.296,34.8892 192.57,34.6966 C193.844,34.4959 195.144,34.4423 196.439,34.5059 C199.033,34.6006 201.603,35.1823 204.01,36.1508 C206.409,37.14 208.656,38.5006 210.621,40.1863 C212.584,41.8728 214.29,43.8571 215.612,46.0671 C216.94,48.2698 217.918,50.6878 218.381,53.2075 C218.866,55.7168 218.88,58.3336 218.324,60.8298 C217.779,63.328 216.599,65.6921 214.892,67.6328 C213.187,69.5751 210.958,71.0655 208.516,71.9843 C207.296,72.4504 206.017,72.7605 204.723,72.9446 C203.428,73.1316 202.116,73.1817 200.811,73.0941 C200.484,73.0802 200.159,73.0479 199.835,73.0109 C199.509,72.9824 199.186,72.9338 198.864,72.883 C198.54,72.8425 198.22,72.774 197.903,72.6969 L196.95,72.4785 C196.544,72.379 196.146,72.2502 195.749,72.1216 C195.526,72.0496 195.304,71.9777 195.081,71.9111 C194.586,71.7303 194.101,71.5264 193.616,71.3231 C193.502,71.2751 193.388,71.2271 193.273,71.1795 C190.927,70.0823 188.764,68.632 186.859,66.8793 Z" id="Shape" fill="#000000"></path>
                <path d="M206.352,72.7525 C207.851,72.2825 209.287,71.6238 210.597,70.7763 C211.906,69.9317 213.073,68.8863 214.055,67.6787 C215.034,66.4794 215.801,65.1218 216.321,63.6647 C216.842,62.2132 217.102,60.6774 217.145,59.1384 C217.177,57.5983 217.02,56.0528 216.637,54.5581 C216.254,53.065 215.675,51.6228 214.938,50.2664 C213.47,47.5429 211.338,45.2073 208.881,43.3313 C206.415,41.4572 203.567,40.0905 200.565,39.3092 C197.565,38.5311 194.389,38.3535 191.33,38.8728 C189.794,39.1097 188.309,39.6062 186.906,40.2588 C185.509,40.9237 184.187,41.7743 183.067,42.8521 C180.803,44.9797 179.29,47.8704 178.785,50.9506 C178.775,51.0166 178.712,51.0617 178.646,51.0515 C178.581,51.0408 178.536,50.9805 178.545,50.9151 C178.985,47.7717 180.486,44.7809 182.776,42.5489 C183.908,41.4195 185.255,40.5169 186.684,39.8054 C188.119,39.1058 189.647,38.5669 191.224,38.2942 C194.371,37.6971 197.636,37.8446 200.744,38.6004 C203.858,39.3555 206.796,40.7869 209.355,42.7069 C211.916,44.626 214.082,47.088 215.587,49.9182 C216.34,51.3315 216.929,52.8343 217.314,54.3906 C217.694,55.9476 217.865,57.5594 217.791,59.1607 C217.713,60.7606 217.409,62.3554 216.837,63.8539 C216.267,65.3534 215.443,66.7446 214.403,67.9673 C212.318,70.4018 209.445,72.0775 206.389,72.8788 C206.372,72.8834 206.354,72.8810926 206.339,72.8723 C206.324,72.8635 206.313,72.8491 206.308,72.8322 C206.299,72.7982 206.319,72.7632 206.352,72.7525 Z" id="Path" fill="#000000"></path>
                <path d="M131.988,51.8103 C130.048,61.2158 121.234,69.1017 111.486,70.4977 C100.992,72.0008 91.4125,65.7464 90.7633,55.1517 C90.0079,42.8336 101.277,31.2747 114.781,31.2747 C127.059,31.2747 134.196,41.1043 131.988,51.8107" id="Path" fill="#FFFFFF"></path>
                <path d="M129.64,59.5498 C131.244,57.3244 132.451,54.7619 133.049,52.028 L133.049,52.0284 C133.338,50.6569 133.483,49.2593 133.482005,47.858 C133.469,46.4506 133.293,45.0494 132.958,43.6822 C132.274,40.9506 130.905,38.3858 128.986,36.3376 C127.077,34.2755 124.637,32.7716 122.04,31.8563 C119.432,30.9307 116.667,30.6637 113.957,30.7296 C108.51,30.8902 103.185,32.9615 98.946,36.3603 C96.832,38.0684 94.9647,40.0997 93.5075,42.4087 C92.036,44.7046 90.9836,47.2801 90.4565,49.9667 C89.949,52.6528 89.9393,55.4499 90.6024,58.1164 C91.2486,60.7829 92.6011,63.2675 94.4587,65.2564 C96.3199,67.2492 98.672,68.7288 101.196,69.6518 C103.725,70.5767 106.428,70.9407 109.096,70.8425 C111.77,70.722 114.404,70.1592 116.893,69.1772 C119.386,68.1887 121.739,66.8819 123.895,65.2895 C126.054,63.6863 128.041,61.7848 129.64,59.5498 Z M131.289,47.8704 C131.3,49.1154 131.174,50.3647 130.926,51.5928 C130.432,54.0485 129.508,56.4307 128.245,58.6585 C126.976,60.8804 125.365,62.959 123.427,64.721 C121.494,66.4857 119.242,67.9384 116.795,68.9338 C116.591,69.0057 116.388,69.0791 116.184,69.1526 C115.767,69.3031 115.349,69.4538 114.928,69.591 C114.698,69.6497 114.468,69.7137 114.239,69.7776 C113.832,69.8913 113.425,70.005 113.012,70.0891 L112.038,70.2713 C111.714,70.3352 111.39,70.3961 111.061,70.4238 C110.733,70.4657 110.404,70.4967 110.075,70.5167 C109.746,70.5438 109.417,70.5596 109.087,70.5641 C106.451,70.638 103.801,70.1811 101.372,69.1973 C98.952,68.1988 96.7567,66.6714 95.0809,64.7029 C93.404,62.7368 92.2635,60.3588 91.7352,57.858 C91.2188,55.3529 91.2563,52.7349 91.7923,50.2337 C92.0475,48.9772 92.4217,47.7477 92.91,46.5618 C93.4032,45.3769 94.0018,44.2366 94.6773,43.1426 C96.0306,40.953 97.7747,39.0053 99.758,37.3504 C101.755,35.6969 104.003,34.37 106.418,33.4193 C108.837,32.4947 111.405,31.9466 113.996,31.8634 C114.644,31.8333 115.291,31.8472 115.938,31.8664 C116.224,31.8836 116.51,31.9126 116.796,31.9415 C116.832,31.9451 116.867,31.9487 116.903,31.9523 L117.86,32.096 C119.125,32.3134 120.363,32.6636 121.554,33.1407 C123.922,34.088 126.04,35.6011 127.635,37.5284 C129.236,39.4522 130.34,41.7504 130.875,44.1734 C131.152,45.3863 131.291,46.6265 131.289,47.8704 Z" id="Shape" fill="#000000"></path>
                <path d="M104.332,70.3745 C101.304,69.5578 98.477,67.8452 96.4482,65.3982 C95.4363,64.1689 94.6381,62.779 94.087,61.2864 C93.5327,59.7952 93.2373,58.2143 93.1566,56.6276 C93.0793,55.0393 93.2435,53.443 93.5949,51.8932 C93.9556,50.3446 94.5191,48.8461 95.2409,47.4308 C96.6857,44.6006 98.769,42.1017 101.278,40.1521 C103.779,38.196 106.673,36.7275 109.755,35.9378 C112.832,35.1493 116.08,34.9971 119.2,35.6027 C120.765,35.8827 122.279,36.4286 123.692,37.1455 C125.102,37.8708 126.419,38.7942 127.528,39.9283 C129.759,42.1872 131.192,45.1731 131.619379,48.2899 C131.624,48.3531 131.579,48.4092 131.516,48.4183 C131.453,48.4275 131.394,48.3865 131.381,48.3246 C130.887,45.2671 129.44,42.3787 127.233,40.2242 C126.136,39.1417 124.843,38.2703 123.466,37.5923 C122.085,36.9232 120.614,36.4197 119.092,36.1767 C116.062,35.6489 112.907,35.8307 109.941,36.6401 C106.974,37.4529 104.17,38.8547 101.761,40.7619 C100.556,41.7154 99.448,42.7843 98.451,43.9535 C97.4617,45.1273 96.6033,46.4055 95.8917,47.7652 C95.1849,49.1243 94.6292,50.5638 94.2696,52.0519 C93.9132,53.5408 93.761,55.0748 93.7973,56.6041 C93.8436,58.1326 94.0962,59.6573 94.6006,61.1031 C95.1029,62.5542 95.8458,63.911 96.7981,65.117 C97.7533,66.3306 98.895,67.3856 100.181,68.2427 C101.468,69.1021 102.886,69.772 104.369,70.2489 C104.404,70.2593 104.424,70.2957 104.414,70.3304 C104.403,70.3651 104.367,70.3848 104.332,70.3745 Z" id="Path" fill="#000000"></path>
                <path d="M183.985,119.463 C195.34,146.32 181.177,170.337 168.089,164.765 C154.788,159.102 144.893,165.25 130.943,164.279 C114.467,163.133 104.504,138.77 117.156,119.031" id="Path" fill="#FFFFFF"></path>
                <path d="M183.985,119.463 C195.34,146.32 181.177,170.337 168.089,164.765 C154.788,159.102 144.893,165.25 130.943,164.279 C114.467,163.133 104.504,138.77 117.156,119.031" id="Path" stroke="#000000" stroke-width="0.853597" stroke-linejoin="round"></path>
                <path d="M170.968,165.384 C173.893,161.271 175.621,156.359 175.921,151.367 C176.078,148.874 175.914,146.371 175.433,143.919 C175.194,142.698 174.88,141.492 174.491,140.309 C174.082,139.135 173.66,137.966 173.145,136.834 C171.104,132.307 167.906,128.276 163.841,125.405 C161.811,123.967 159.579,122.835 157.217,122.048 C154.858,121.261 152.378,120.85 149.889,120.777 C144.922,120.662 139.833,121.747 135.627,124.43 C133.528,125.761 131.672,127.471 130.151,129.442 C128.626,131.412 127.43,133.634 126.558,135.975 C124.827,140.667 124.334,145.807 125.026,150.77 C125.389,153.248 126.049,155.697 127.121,157.964 C128.187,160.222 129.684,162.327 131.713,163.809 C131.765,163.846 131.777,163.918 131.74,163.97 C131.703,164.021 131.631,164.033 131.579,163.996 C129.491,162.506 127.945,160.379 126.836,158.1 C125.723,155.81 125.027,153.336 124.631,150.829 C123.875,145.807 124.313,140.59 126.026,135.782 C126.889,133.383 128.087,131.093 129.633,129.049 C131.176,127.004 133.072,125.216 135.23,123.815 C137.385,122.41 139.787,121.397 142.276,120.762 C144.77,120.143 147.339,119.835 149.913,119.896 C152.483,119.952 155.057,120.358 157.512,121.156 C159.972,121.952 162.299,123.113 164.412,124.6 C166.526,126.083 168.42,127.855 170.04,129.864 C171.648,131.873 172.993,134.08 174.041,136.43 C174.3,137.016 174.543,137.61 174.77,138.21 C174.83,138.359 174.879,138.512 174.934,138.662 C174.997,138.81 175.032,138.968 174.959,139.162 C174.898,139.352 174.789,139.555 174.801,139.717 C174.816,139.878 174.889,140.021 174.93,140.173 C175.308,141.378 175.61,142.605 175.835,143.847 C176.287,146.335 176.418,148.871 176.225,151.392 C175.853,156.432 174.04,161.356 171.049,165.442 C171.032,165.464 171.001,165.469 170.979,165.453 C170.957,165.437 170.952,165.406 170.968,165.384 Z" id="Path" fill="#000000"></path>
                <path d="M184.659,111.606 C190.711,117.27 197.331,127.337 183.381,132.837 C174.009,136.533 160.795,132.466 159.03,128.432 C157.446,124.814 160.166,122.123 164.383,122.123 C170.727,122.123 173.791,124.388 180.604,121.475" id="Path" fill="#FFFFFF"></path>
                <path d="M184.863,111.39 C186.094,112.539 187.252,113.771 188.297,115.099 C189.338,116.428 190.272,117.857 190.963,119.419 C191.651,120.972 192.09,122.693 191.945,124.438 C191.815,126.183 191.015,127.847 189.851,129.12 C188.69,130.407 187.244,131.375 185.737,132.153 C184.228,132.924 182.64,133.565 180.98,133.962 C177.668,134.765 174.221,134.809 170.872,134.356 C169.192,134.128 167.535,133.76 165.917,133.255 C164.301,132.745 162.716,132.093 161.268,131.163 C160.55,130.694 159.855,130.161 159.291,129.466 C159.004,129.116 158.778,128.719 158.623,128.294 C158.46,127.881 158.347,127.45 158.287,127.011 C158.166,126.127 158.316,125.174 158.783,124.388 C159.243,123.597 159.964,123 160.748,122.6 C161.537,122.197 162.396,121.975 163.256,121.874 C164.126,121.784 164.975,121.839 165.815,121.887 C167.503,121.995 169.164,122.284 170.812,122.53 C172.46,122.776 174.123,122.923 175.777,122.73 C177.43,122.558 179.051,122.097 180.604,121.476 C179.082,122.166 177.479,122.719 175.806,122.957 C174.133,123.207 172.427,123.111 170.762,122.915 C169.095,122.721 167.444,122.487 165.786,122.435 C164.957,122.413 164.124,122.39 163.331,122.499 C162.532,122.599 161.747,122.811 161.047,123.176 C160.348,123.537 159.743,124.064 159.357,124.72 C158.966,125.375 158.837,126.161 158.938,126.927 C158.987,127.311 159.09,127.692 159.231,128.061 C159.371,128.437 159.535,128.752 159.785,129.066 C160.295,129.694 160.898,130.239 161.574,130.684 C162.261,131.137 163.025,131.475 163.82,131.705 C163.918,131.738 164.015,131.774 164.157,131.7 C164.297,131.632 164.46,131.502 164.613,131.388 C164.764,131.282 164.903,131.2 165.001,131.22 C165.098,131.245 165.187,131.289 165.28,131.322 C165.649,131.466 166.024,131.6 166.403,131.724 C166.782,131.851 167.164,131.966 167.549,132.077 C167.932,132.196 168.319,132.304 168.708,132.408 C169.487,132.605 170.272,132.796 171.065,132.963 C172.66,133.291 174.279,133.49 175.906,133.559 C176.721,133.588 177.541,133.588 178.36,133.537 C179.176,133.471 179.991,133.371 180.796,133.21 C181.598,133.04 182.389,132.818 183.162,132.544 C183.935,132.257 184.693,131.93 185.433,131.565 C186.905,130.833 188.302,129.923 189.413,128.728 C190.523,127.544 191.293,126.024 191.426,124.394 C191.565,122.766 191.157,121.126 190.495,119.623 C189.833,118.112 188.924,116.71 187.882,115.422 C186.843,114.128 185.697,112.925 184.455,111.823 C184.375,111.753 184.339,111.645 184.361,111.541 C184.382,111.437 184.458,111.352 184.559,111.319 C184.66,111.285 184.771,111.308 184.851,111.379 L184.856,111.383 L184.863,111.39 Z" id="Path" fill="#000000"></path>
                <path d="M120.184,112.776 C90.2011,79.1262 117.073,34.6276 165.034,44.307 C211.956,53.7768 212.318,103.931 177.281,119.679" id="Path" fill="#FFFFFF"></path>
                <path d="M120.128,112.825 C117.082,109.449 114.364,105.75 112.233,101.71 C110.103,97.677 108.537,93.324 107.739,88.81 C106.939,84.3 106.905,79.6352 107.731,75.1039 C108.563,70.5536 110.22,66.1926 112.62,62.2349 C112.756,61.9783 112.968,61.7711 113.115,61.5226 L113.596,60.8022 C113.922,60.3253 114.273,59.8662 114.61,59.3977 L115.687,58.0402 C116.066,57.6053 116.437,57.1623 116.824,56.7343 C118.379,55.0274 120.078,53.4564 121.902,52.0385 C125.544,49.2006 129.655,46.9894 133.987,45.4289 C138.321,43.8676 142.872,42.9354 147.454,42.6014 C149.745,42.4321 152.043,42.392 154.338,42.4812 C156.631,42.576 158.916,42.8071 161.185,43.1322 C165.715,43.8106 170.2,44.8703 174.5,46.4763 C178.8,48.068 182.927,50.1821 186.63,52.9072 C190.332,55.6222 193.621,58.9305 196.185,62.7476 C198.751,66.5582 200.61,70.8453 201.594,75.3293 C203.578,84.302 202.043,93.959 197.486,101.906 C195.231,105.89 192.291,109.476 188.855,112.488 C185.424,115.51 181.487,117.928 177.311,119.745 C177.275,119.759 177.233,119.743 177.217,119.707 C177.201,119.672 177.216,119.63 177.251,119.612 C181.369,117.696 185.204,115.191 188.57,112.17 C191.929,109.141 194.781,105.56 196.946,101.607 C199.116,97.658 200.585,93.332 201.256,88.889 C201.941,84.447 201.761,79.8837 200.784,75.508 C199.796,71.1323 197.955,66.96 195.428,63.258 C192.913,59.5437 189.7,56.3171 186.071,53.6687 C182.442,51.0107 178.391,48.9448 174.162,47.3897 C169.934,45.811 165.506,44.8091 161.046,44.0895 C158.812,43.7536 156.562,43.5101 154.303,43.4011 C152.043,43.2977 149.78,43.3212 147.523,43.4716 C143.009,43.7674 138.53,44.6604 134.253,46.157 C129.984,47.6593 125.904,49.7765 122.317,52.5651 C120.52,53.9565 118.846,55.4986 117.314,57.1746 C116.932,57.5949 116.567,58.0298 116.193,58.4566 L115.132,59.7895 C114.8,60.2495 114.453,60.7002 114.133,61.1686 L113.658,61.8758 L113.539,62.053 C113.487,62.1031 113.512,62.2037 113.603,62.3447 C113.693,62.486 113.815,62.6455 113.844,62.7453 C113.877,62.8493 113.803,62.8844 113.777,62.9502 C111.403,66.7432 109.743,70.9358 108.876,75.3227 C108.003,79.7053 108.005,84.234 108.663,88.658 C109.337,93.086 110.775,97.397 112.779,101.431 C114.745,105.492 117.349,109.23 120.24,112.727 L120.241,112.728 C120.264,112.76 120.26,112.804 120.23,112.829 C120.2,112.855 120.156,112.853 120.128,112.825 Z" id="Path" fill="#000000"></path>
                <path d="M122.824,57.0409 C122.824,57.0409 135.215,53.6672 155.155,56.3926 C179.005,59.6512 186.905,65.7481 186.905,65.7481" id="Path" stroke="#000000" stroke-width="0.525"></path>
                <path d="M164.538,56.9108 C185.842,60.3616 193.502,70.2783 193.502,70.2783" id="Path" stroke="#000000" stroke-width="0.588169"></path>
                <path d="M153.515,93.457 C153.549,94.316 152.632,95.015 151.203,95.008 C149.367,94.998 147.444,93.879 147.444,92.533 C147.444,91.209 149.313,90.704 151.111,91.234 C152.518,91.651 153.481,92.609 153.515,93.457 Z" id="Path" fill="#000000"></path>
                <path d="M151.865,92.832 C151.885,93.34 151.342,93.754 150.496,93.749 C149.41,93.744 148.272,93.082 148.272,92.284 C148.272,91.501 149.378,91.202 150.443,91.516 C151.275,91.763 151.845,92.329 151.865,92.832 Z" id="Path" fill="#FFFFFF"></path>
                <path d="M161.708,104.84 C161.502,105.316 161.156,105.704 160.776,106.032 C160.388,106.357 159.955,106.623 159.489,106.821 C159.021,107.012 158.521,107.152 158.005,107.17 C157.494,107.186 156.965,107.079 156.535,106.803 L156.587,106.638 C157.073,106.643 157.513,106.619 157.952,106.551 C158.388,106.484 158.823,106.38 159.239,106.211 C159.66,106.047 160.062,105.837 160.437,105.586 C160.813,105.335 161.165,105.043 161.449,104.695 L161.708,104.841 L161.708,104.84 Z" id="Path" fill="#000000" fill-rule="nonzero"></path>
                <path d="M104.513,87.573 C104.099,87.642 103.688,87.717 103.279,87.797 L103.28,87.797 C103.692,87.847 104.106,87.891 104.52,87.929 L105.745,88.086 L106.967,88.144 L108.185,88.257 C109.807,88.442 111.412,88.766 112.987,89.203 C114.563,89.64 116.109,90.188 117.625,90.809 C118.383,91.123 119.134,91.451 119.88,91.793 C120.196,91.896 120.511,92.001 120.826,92.107 L120.826,92.107 C121.297,92.264 121.768,92.422 122.245,92.572 C121.566,92.089 120.863,91.643 120.152,91.205 C119.398,90.86 118.638,90.528 117.871,90.211 C116.336,89.581 114.766,89.025 113.161,88.58 C111.557,88.134 109.917,87.804 108.259,87.614 L107.013,87.499 C106.832,87.491 106.65,87.48 106.469,87.47 C106.234,87.456 105.998,87.442 105.763,87.434 L105.579,87.453 C105.223,87.49 104.867,87.527 104.513,87.573 Z M101.92,96.047 C101.541,96.254 101.166,96.467 100.795,96.685 C101.218,96.597 101.638,96.504 102.054,96.405 L103.305,96.12 L104.506,95.708 L105.717,95.326 C107.336,94.832 108.979,94.422 110.64,94.098 C112.3,93.777 113.977,93.55 115.662,93.43 L116.927,93.36 L118.194,93.33 L119.465,93.18 C119.889,93.14 120.317,93.095 120.746,93.045 C120.324,92.96 119.9,92.881 119.474,92.807 C119.199,92.766 118.923,92.731 118.646,92.695 C118.494,92.676 118.341,92.656 118.189,92.636 C117.938,92.636 117.688,92.644 117.438,92.652 L117.438,92.652 L117.438,92.652 C117.258,92.658 117.079,92.663 116.9,92.666 L115.613,92.738 C113.899,92.862 112.194,93.089 110.507,93.418 C108.822,93.746 107.156,94.161 105.515,94.662 L104.289,95.049 L103.071,95.46 L101.92,96.047 Z M178.574,100.406 L178.756,100.305 L178.756,100.305 C179.15,100.089 179.546,99.87 179.951,99.669 C180.072,99.615 180.192,99.561 180.313,99.506 C180.668,99.346 181.026,99.184 181.389,99.038 L181.662,98.962 L181.662,98.962 C182.073,98.847 182.485,98.732 182.899,98.628 C183.078,98.589 183.257,98.547 183.436,98.506 L183.436,98.506 C183.765,98.429 184.094,98.353 184.425,98.289 C186.469,97.882 188.543,97.647 190.62,97.543 C192.697,97.444 194.778,97.473 196.852,97.629 L198.405,97.768 C198.921,97.826 199.437,97.886 199.952,97.953 L201.469,98.34 C201.971,98.477 202.469,98.632 202.963,98.788 C202.485,98.76 202.011,98.721 201.538,98.683 L201.412,98.673 L199.865,98.595 C199.632,98.57 199.4,98.54 199.167,98.51 C198.891,98.474 198.614,98.439 198.337,98.412 L196.804,98.274 C194.757,98.12 192.702,98.092 190.651,98.19 C188.603,98.291 186.56,98.523 184.552,98.923 C184.23,98.986 183.911,99.06 183.591,99.134 L183.591,99.134 C183.412,99.176 183.234,99.217 183.055,99.257 C182.759,99.326 182.467,99.411 182.175,99.495 L182.175,99.495 C181.976,99.552 181.777,99.61 181.577,99.662 C181.29,99.721 181.005,99.788 180.719,99.855 L180.719,99.855 C180.505,99.905 180.29,99.956 180.073,100.003 L178.574,100.406 Z M182.978,100.873 C182.579,100.876 182.181,100.885 181.783,100.9 L184.061,101.554 C184.829,101.686 185.593,101.841 186.353,102.017 C187.87,102.374 189.366,102.818 190.833,103.347 C192.3,103.879 193.74,104.484 195.148,105.158 C195.852,105.496 196.55,105.846 197.242,106.208 C197.526,106.316 197.809,106.425 198.093,106.535 C198.546,106.711 199,106.886 199.46,107.054 C198.841,106.555 198.196,106.092 197.545,105.636 C196.845,105.27 196.139,104.916 195.427,104.574 C194.001,103.891 192.541,103.278 191.053,102.739 C189.563,102.203 188.043,101.748 186.5,101.387 L185.34,101.133 L184.172,100.911 L184.077,100.908 C183.71,100.893 183.344,100.879 182.978,100.873 Z" id="Shape" fill="#000000"></path>
                <path d="M179.307,50.6053 C183.758,52.7529 188.002,55.3828 191.743,58.713 C188.476,54.9036 184.314,51.8854 179.88,49.4851 C177.663,48.2716 175.343,47.2512 172.981,46.3448 C170.609,45.4577 168.184,44.7205 165.719,44.1375 C163.248,43.5785 160.742,43.1625 158.215,42.9371 C155.688,42.7345 153.142,42.6752 150.612,42.8936 C148.083,43.0916 145.571,43.5396 143.145,44.2665 C140.727,45.0088 138.388,46.0266 136.296,47.4114 C140.828,45.2527 145.766,44.3189 150.684,44.1544 C153.148,44.0905 155.615,44.1764 158.064,44.4618 C160.517,44.7258 162.95,45.1433 165.351,45.7118 C167.758,46.2519 170.128,46.9623 172.457,47.7801 C174.793,48.584 177.071,49.5494 179.307,50.6053 Z M124.842,62.0818 C127.42,59.3706 130.192,56.8451 133.081,54.4637 L132.808,54.1351 C129.916,56.5342 127.14,59.0798 124.557,61.8133 C124.102,62.2788 123.67,62.7654 123.238,63.252 C123.045,63.4685 122.853,63.685 122.659,63.8996 C122.46,64.1272 122.267,64.3593 122.073,64.5915 C121.966,64.7205 121.858,64.8496 121.75,64.9779 C121.444,65.3352 121.148,65.7004 120.861,66.0731 C119.677,67.5353 118.601,69.0828 117.594,70.6726 C115.591,73.8537 114.011,77.3415 113.214,81.0357 C112.82,82.8813 112.635,84.775 112.698,86.665 C112.757,88.555 113.095,90.434 113.654,92.239 C114.763,95.866 116.865,99.121 119.414,101.894 C121.985,104.664 125.017,106.969 128.245,108.91 C131.478,110.853 134.931,112.42 138.5,113.643 C142.07,114.861 145.77,115.727 149.537,116.123 C153.296,116.469 157.065,116.62 160.84,116.476 C164.609,116.331 168.385,115.945 172.078,115.103 C175.763,114.26 179.393,113.021 182.686,111.111 C185.98,109.23 188.913,106.626 190.97,103.413 C192.008,101.817 192.803,100.071 193.4,98.27 C193.986,96.463 194.343,94.59 194.525,92.708 C194.884,88.935 194.517,85.137 193.75,81.4541 C192.981,77.7668 191.819,74.1742 190.41,70.6934 C189.018,67.2033 187.372,63.8234 185.611,60.5113 L185.388,60.6284 C188.814,67.2738 191.725,74.247 193.23,81.5596 C193.967,85.208 194.305,88.957 193.93,92.65 C193.742,94.493 193.382,96.32 192.801,98.075 C192.209,99.824 191.428,101.513 190.412,103.055 C188.401,106.156 185.546,108.663 182.323,110.48 C179.101,112.324 175.535,113.521 171.904,114.328 C168.265,115.123 164.543,115.551 160.81,115.697 C157.078,115.836 153.325,115.758 149.602,115.451 C145.893,115.105 142.224,114.283 138.678,113.115 C135.133,111.94 131.695,110.422 128.472,108.53 C125.262,106.625 122.266,104.336 119.724,101.609 C117.206,98.876 115.135,95.676 114.043,92.118 C113.493,90.347 113.159,88.506 113.099,86.65 C113.034,84.796 113.213,82.9345 113.599,81.117 C114.379,77.479 115.935,74.029 117.917,70.8733 C119.895,67.7068 122.26,64.786 124.842,62.0818 Z" id="Shape" fill="#000000"></path>
                <path d="M180.474,50.152 C177.385,49.0233 174.31,47.9462 171.183,47.1072 L168.831,46.5263 C168.326,46.412 167.818,46.3138 167.31,46.2158 C167.028,46.1612 166.745,46.1067 166.464,46.0494 L164.085,45.6784 C163.582,45.6208 163.078,45.5763 162.575,45.5319 L162.574,45.5318 C162.281,45.5059 161.987,45.4801 161.694,45.4515 L159.299,45.3525 L156.905,45.4296 C156.619,45.4584 156.331,45.4843 156.044,45.5101 C155.536,45.5558 155.028,45.6016 154.522,45.6638 L153.342,45.8695 C153.202,45.8945 153.061,45.9155 152.92,45.9364 C152.665,45.9744 152.409,46.0124 152.159,46.0752 C149.022,46.7401 145.986,47.8977 143.059,49.397 C145.617,47.3314 148.633,45.7774 151.849,44.8506 C152.483,44.6669 153.129,44.5238 153.775,44.3806 L153.775,44.3805 C153.948,44.3423 154.12,44.3041 154.293,44.2651 C154.84,44.1712 155.391,44.0956 155.943,44.0198 C156.222,43.9814 156.502,43.943 156.782,43.9022 C157.365,43.8592 157.949,43.8331 158.534,43.8069 C158.787,43.7956 159.04,43.7843 159.294,43.7716 C159.575,43.7791 159.858,43.7852 160.14,43.7913 C160.695,43.8033 161.25,43.8153 161.805,43.8382 C162.092,43.8701 162.379,43.8999 162.665,43.9296 L162.666,43.9296 L162.666,43.9296 C163.21,43.9861 163.755,44.0425 164.298,44.1137 C164.584,44.165 164.872,44.2123 165.159,44.2596 L165.159,44.2596 C165.695,44.3478 166.231,44.4359 166.761,44.5505 C167.042,44.6213 167.324,44.6895 167.606,44.7577 C168.133,44.8852 168.66,45.0127 169.182,45.1565 L169.361,45.2105 C170.097,45.4318 170.832,45.6531 171.555,45.9057 C174.676,46.9902 177.667,48.4142 180.474,50.152 Z M117.266,155.23 C115.243,153.616 113.768,151.311 112.872,148.843 C111.955,146.368 111.582,143.718 111.589,141.101 C111.606,138.483 112.006,135.881 112.776,133.378 C113.541,130.9 114.654,128.461 116.387,126.532 C115.243,128.834 114.546,131.251 114.034,133.698 C113.547,136.149 113.269,138.632 113.253,141.11 C113.241,143.587 113.492,146.06 114.106,148.456 C114.731,150.848 115.753,153.143 117.266,155.23 Z M121.696,45.6256 C120.879,45.6946 120.058,45.8055 119.285,46.0667 C120.085,45.9107 120.897,45.9107 121.7,45.9492 C122.504,45.9935 123.304,46.0864 124.096,46.2273 C124.885,46.3668 125.667,46.544 126.421,46.7736 C127.165,47.002 127.925,47.2921 128.463,47.6731 L128.488,47.6908 C128.687,47.8293 128.947,47.8457 129.162,47.7335 C129.377,47.6212 129.512,47.3989 129.512,47.1567 C129.511,46.9146 129.376,46.6928 129.16,46.5813 C128.295,46.1376 127.472,45.9762 126.642,45.8282 C125.822,45.6971 124.994,45.6155 124.164,45.584 C123.341,45.5479 122.517,45.5618 121.696,45.6256 Z" id="Shape" fill="#000000"></path>
                <path d="M169.624,43.7072 C170.84,43.7766 172.061,43.9122 173.24,44.2646 C172.107,43.7835 170.888,43.5073 169.669,43.3016 C168.446,43.0997 167.209,42.9799 165.97,42.9117 C163.489,42.7854 160.993,42.8405 158.487,43.1814 L157.675,43.2923 L158.007,44.9842 L158.802,44.7839 C161.12,44.2007 163.543,43.8725 165.97,43.7284 C167.185,43.6602 168.405,43.6429 169.624,43.7072 Z M124.152,44.6803 C125.23,44.5879 126.316,44.6163 127.388,44.7651 C127.933,44.8421 128.479,44.9511 129.028,45.1206 C129.576,45.294 130.132,45.5163 130.673,45.9103 L130.704,45.9327 C130.963,46.1209 131.089,46.4424 131.026,46.7558 C130.962,47.0693 130.722,47.3175 130.41,47.3914 C130.099,47.4653 129.772,47.3515 129.574,47.0999 C129.327,46.7863 128.949,46.4862 128.533,46.2293 C128.115,45.9697 127.655,45.7443 127.178,45.5463 C126.205,45.1456 125.19,44.8552 124.152,44.6803 Z M188.955,46.5517 C188.174,46.3675 187.377,46.3398 186.596,46.396 C185.814,46.4538 185.045,46.6052 184.302,46.8202 C183.567,47.0313 182.856,47.3163 182.179,47.6707 C181.52,48.0205 180.904,48.4462 180.455,48.9289 C180.228,49.1739 179.882,49.2695 179.561,49.1755 C179.24,49.0816 179.001,48.8143 178.942,48.4859 C178.884,48.1574 179.018,47.8245 179.287,47.6268 L179.297,47.6191 C180.06,47.0621 180.867,46.7196 181.678,46.4604 C182.479,46.2118 183.303,46.045 184.138,45.9627 C184.962,45.8802 185.79,45.871 186.604,45.9592 C187.416,46.0482 188.22,46.2289 188.955,46.5517 L188.955,46.5517 Z" id="Shape" fill="#000000"></path>
                <path d="M126.896,157.842 C128.662,162.297 132.168,164.309 133.29,164.482 C134.126,164.611 137.675,164.44 142.878,163.608 C148.082,162.776 156.48,160.366 166.347,164.51 C170.116,166.093 171.325,166.309 173.644,160.983" id="Path" fill="#FFFFFF"></path>
                <path d="M129.845,91.734 C123.879,91.019 119.572,86.077 119.572,80.7703 C119.572,75.6257 123.633,71.1333 129.221,70.5343 C135.571,69.8536 141.735,74.3287 142.17,80.8416 C142.624,87.616 136.683,92.553 129.845,91.734 Z M128.711,160.562 C128.047,159.705 127.486,158.773 127.039,157.786 L126.753,157.899 C127.476,160.005 128.763,161.948 130.508,163.418 C130.949,163.78 131.409,164.123 131.917,164.41 C132.174,164.551 132.434,164.687 132.726,164.795 C132.879,164.855 133.038,164.901 133.199,164.934 C133.354,164.96 133.51,164.977 133.667,164.984 C134.822,165.035 135.921,164.974 137.035,164.895 C139.254,164.727 141.453,164.468 143.649,164.11 C144.18,164.021 144.708,163.93 145.234,163.838 C146.88,163.552 148.507,163.27 150.145,163.081 C152.303,162.833 154.47,162.748 156.627,162.869 C158.78,163.004 160.923,163.34 163.008,163.918 C164.05,164.204 165.085,164.532 166.096,164.925 L166.103,164.928 C166.615,165.126 167.135,165.328 167.674,165.497 C168.215,165.667 168.779,165.823 169.391,165.854 C169.704,165.871 170.018,165.84 170.321,165.762 C170.624,165.677 170.909,165.539 171.164,165.354 C171.664,164.99 172.016,164.516 172.317,164.039 C172.904,163.069 173.308,162.038 173.688,161.002 L173.601,160.964 C173.091,161.937 172.573,162.916 171.927,163.773 C171.607,164.197 171.244,164.592 170.823,164.841 C170.403,165.093 169.937,165.17 169.449,165.111 C168.635,165.002 167.818,164.639 166.994,164.273 C166.819,164.195 166.643,164.117 166.467,164.041 C165.444,163.582 164.396,163.181 163.327,162.84 C159.041,161.459 154.422,161.216 149.991,161.772 C148.885,161.905 147.782,162.071 146.685,162.269 L143.436,162.883 C141.285,163.258 139.111,163.592 136.939,163.824 C136.868,163.831 136.796,163.838 136.724,163.845 C135.712,163.944 134.684,164.045 133.704,164.043 C133.424,164.041 133.266,164.025 133.026,163.941 C132.798,163.868 132.561,163.76 132.33,163.646 C131.863,163.402 131.416,163.122 130.994,162.808 C130.145,162.168 129.379,161.406 128.711,160.562 Z" id="Shape" fill="#000000"></path>
                <path d="M122.407,80.6039 C122.407,77.5341 124.002,74.7205 126.537,73.0009 C123.189,74.2925 120.94,77.4124 120.94,80.8944 C120.94,85.212 124.387,89.236 129.197,89.93 C125.139,88.418 122.408,84.627 122.408,80.6039" id="Path" fill="#FFFFFF"></path>
                <path d="M133.017,91.221 C136.361,91.221 139.072,88.517 139.072,85.182 L139.072,85.182 C139.072,81.8456 136.361,79.1414 133.017,79.1414 C129.672,79.1414 126.961,81.8456 126.961,85.181 C126.961,88.517 129.672,91.221 133.017,91.221 Z M123.05,80.6622 C123.05,81.2296 123.51,81.7573 124.147,81.834 C124.879,81.9215 125.513,81.3941 125.465,80.6699 C125.418,79.9742 124.76,79.4957 124.081,79.5685 C123.484,79.6329 123.05,80.1125 123.05,80.6626 L123.05,80.6622 Z M121.712,85.125 C121.712,86.32 122.682,87.432 124.025,87.594 C125.565,87.779 126.902,86.666 126.801,85.141 C126.703,83.6746 125.315,82.6669 123.884,82.8202 C122.625,82.955 121.712,83.9666 121.712,85.125 Z" id="Shape" fill="#FFFFFF"></path>
                <path d="M185.166,85.71 C185.166,91.131 180.766,96.18 174.671,96.91 C167.686,97.746 161.618,92.703 162.081,85.783 C162.526,79.1306 168.821,74.5592 175.309,75.2545 C181.017,75.8662 185.165,80.4549 185.165,85.71" id="Path" fill="#000000"></path>
                <path d="M181.451,89.043 C182.857,86.056 182.703,82.6437 181.196,79.8964 C183.635,82.5729 184.241,86.561 182.647,89.947 C180.669,94.147 175.706,96.599 171.034,95.235 C175.4,95.485 179.608,92.956 181.451,89.043 Z" id="Path" fill="#FFFFFF"></path>
                <path d="M169.2,95.068 C172.545,95.068 175.256,92.364 175.256,89.028 L175.256,89.028 C175.256,85.692 172.545,82.988 169.201,82.988 C165.856,82.988 163.145,85.692 163.145,89.028 C163.145,92.364 165.856,95.068 169.2,95.068 Z M180.549,87.294 C180.271,87.838 179.57,88.118 178.921,87.88 C178.177,87.606 177.829,86.79 178.231,86.12 C178.618,85.475 179.484,85.339 180.099,85.741 C180.641,86.094 180.82,86.767 180.549,87.294 Z M181.293,92.625 C180.747,93.689 179.375,94.24 178.106,93.772 C176.65,93.237 175.968,91.639 176.755,90.328 C177.513,89.066 179.209,88.8 180.412,89.586 C181.47,90.278 181.822,91.595 181.293,92.626 L181.293,92.625 Z" id="Shape" fill="#FFFFFF"></path>
                <path d="M136.521,65.4012 C147.067,70.3263 151.715,75.6481 151.715,75.6481 C151.224,75.3592 150.743,75.0668 150.259,74.7725 C146.204,72.3074 141.923,69.705 129.706,67.8339 C123.332,66.8578 117.852,70.0651 117.198,70.5497 L116.905,63.9054 L109.87,58.1653 L119.814,61.9743 L121.569,61.9073 L117.228,58.814 C117.228,58.814 126.006,60.4897 136.521,65.4012 Z M173.296,72.2015 C161.062,72.903 154.436,76.2906 154.436,76.2906 C155.111,76.2068 155.8,76.1008 156.524,75.9894 C160.989,75.3025 166.797,74.4089 179.001,77.2347 C185.612,78.766 189.71,84.036 190.159,84.764 L193.049,78.3858 L202.171,75.5197 L190.963,75.3645 L190.412,74.955 L195.865,73.6241 C195.865,73.6241 185.494,71.5011 173.296,72.2015 Z" id="Shape" fill="#000000"></path>
                <path d="M118.801,111.57 C118.801,111.57 107.158,109.882 100.922,108.462 C100.484,108.361 95.7012,105.246 95.364,107.791 C95.1624,109.307 94.1127,109.285 94.0336,109.766 C93.8096,111.107 93.7493,112.322 93.7385,113.142 C93.6725,117.951 96.6683,117.834 98.485,118.706 C107.892,123.224 119.751,124.873 119.751,124.873" id="Path" fill="#FFFFFF"></path>
                <path d="M118.775,111.747 C116.258,111.428 113.745,111.091 111.24,110.694 C108.733,110.307 106.229,109.896 103.73,109.433 L101.858,109.07 L100.922,108.875 L100.865,108.862 L100.835,108.857 L100.766,108.837 C100.695,108.812 100.659,108.794 100.615,108.774 L100.388,108.661 L99.965,108.439 C99.409,108.147 98.853,107.871 98.286,107.64 C97.7247,107.415 97.133,107.22 96.5985,107.202 C96.3347,107.195 96.108,107.25 95.986,107.362 C95.9211,107.417 95.8724,107.492 95.8338,107.59 C95.8139,107.642 95.7982,107.696 95.7871,107.75 L95.7516,107.97 C95.6921,108.321 95.5754,108.69 95.3507,109.014 C95.1367,109.341 94.793,109.585 94.5582,109.748 C94.5022,109.788 94.4578,109.826 94.4404,109.845 C94.4238,109.874 94.4423,109.831 94.4377,109.847 L94.3674,110.306 C94.3241,110.613 94.2875,110.921 94.2577,111.23 C94.1979,111.848 94.1634,112.468 94.1542,113.089 C94.136,114.298 94.2948,115.549 94.9857,116.433 C95.3256,116.873 95.7929,117.2 96.3297,117.445 C96.8673,117.693 97.4652,117.861 98.083,118.086 C98.73,118.333 99.268,118.611 99.848,118.864 C100.415,119.133 101.002,119.361 101.583,119.6 C102.161,119.846 102.753,120.06 103.343,120.279 C103.93,120.504 104.527,120.706 105.124,120.906 C107.511,121.709 109.943,122.391 112.396,122.98 C114.848,123.561 117.326,124.094 119.807,124.472 C119.994,124.501 120.134,124.658 120.141201,124.847 C120.147,125.036 120.018,125.202 119.833,125.244 L119.695,125.274 C119.021,125.421 118.37,125.448 117.72,125.438 C117.071,125.43 116.432,125.358 115.798,125.261 C115.143,125.257 114.663,124.432 114.026,124.372 C113.411,124.202 112.794,124.043 112.182,123.864 C109.725,123.194 107.26,122.553 104.844,121.734 C104.239,121.53 103.636,121.325 103.04,121.095 C102.442,120.873 101.843,120.655 101.255,120.404 C100.666,120.159 100.071,119.927 99.493,119.652 C98.913,119.396 98.318,119.095 97.7842,118.893 C97.2145,118.683 96.5869,118.507 95.9701,118.223 C95.3553,117.943 94.747,117.527 94.3102,116.957 C93.8688,116.391 93.6093,115.72 93.471,115.059 C93.332,114.395 93.2941,113.728 93.3072,113.076 C93.3188,112.432 93.3567,111.789 93.4204,111.148 C93.4525,110.828 93.4915,110.508 93.5374,110.189 L93.612,109.711 C93.6189,109.659 93.649,109.544 93.6877,109.476 C93.7263,109.398 93.7734,109.34 93.819,109.288 C93.9097,109.189 93.992,109.13 94.0638,109.076 C94.3473,108.879 94.5257,108.746 94.6644,108.543 C94.8019,108.348 94.8864,108.102 94.9332,107.833 C94.9625,107.547 95.0772,107.039 95.4426,106.74 C95.8083,106.426 96.2559,106.372 96.6174,106.379 C97.357,106.412 97.9846,106.642 98.595,106.884 C99.202,107.132 99.78,107.423 100.344,107.721 L100.762,107.942 L100.96,108.042 L101.028,108.071 C101.028,108.071 101.012,108.067 101.016,108.068 L101.045,108.075 L101.102,108.088 L102.024,108.3 L103.876,108.698 C108.83,109.72 113.835,110.531 118.827,111.393 C118.925,111.407 118.993,111.498 118.979,111.596 C118.965,111.694 118.873,111.762 118.775,111.747" id="Path" fill="#000000"></path>
                <path d="M105.179,112.88 C104.959,112.444 104.71,112.023 104.433,111.62 C104.298,111.418 104.154,111.22 104.004,111.028 C103.855,110.834 103.685,110.659 103.545,110.455 C103.317,109.988 102.877,109.719 102.477,109.435 C102.057,109.173 101.6,108.966 101.115,108.876 C100.99,108.854 100.899,108.746 100.897992,108.619 C100.897,108.492 100.987,108.383 101.112,108.359 L101.363,108.308 C101.999,108.181 102.571,108.352 103.085,108.594 C103.336,108.724 103.573,108.881 103.783,109.067 C103.894,109.153 103.998,109.25 104.01,109.436 C104.033,109.614 103.972,109.865 103.97,110.048 C103.955,110.243 104.017,110.359 104.094,110.461 C104.167,110.569 104.229,110.683 104.296,110.793 C104.425,111.016 104.553,111.236 104.672,111.46 C104.799,111.679 104.914,111.903 105.02,112.131 L105.191,112.466 C105.243,112.58 105.295,112.694 105.356,112.804 C105.376,112.835 105.376,112.873 105.358,112.904 C105.339,112.935 105.305,112.954 105.269,112.952 C105.233,112.95 105.201,112.928 105.187,112.895 L105.179,112.879 L105.179,112.88 Z" id="Path" fill="#000000"></path>
                <path d="M119.362,168.048 C117.153,163.194 108.717,158.672 114.312,154.988 C115.012,154.528 115.987,154.787 116.708,154.512 C117.571,153.844 117.951,152.753 118.81,152.227 C120.955,150.915 121.642,151.924 123.414,150.958 C124.671,150.431 124.892,148.824 126.819,149.156 C128.933,149.467 129.518,152.748 130.069,154.188 C131.492,158.158 136.18,165.727 133.28,169.84 C129.747,174.971 121.57,172.903 119.362,168.049" id="Path" fill="#FFFFFF"></path>
                <path d="M116.448,164.495 C117.453,165.649 118.443,166.835 119.07,168.18 L119.071,168.18 C119.457,169.054 120,169.85 120.674,170.528 C121.33,171.221 122.102,171.802 122.942,172.265 C123.778,172.735 124.691,173.071 125.638,173.291 C126.596,173.515 127.587,173.567 128.564,173.446 C130.529,173.201 132.442,172.124 133.6,170.505 C133.9,170.127 134.167,169.654 134.363,169.185 C134.563,168.711 134.671,168.214 134.749,167.722 C134.879,166.732 134.812,165.757 134.646,164.823 C134.133,162.086 132.996,159.622 131.88,157.205 C131.472,156.321 131.066,155.443 130.695,154.561 C130.526,154.15 130.372,153.733 130.233,153.311 C130.201,153.214 130.169,153.116 130.136,153.018 C130.026,152.684 129.915,152.345 129.784,152.008 C129.446,151.145 129.053,150.247 128.311,149.537 C127.945,149.191 127.455,148.908 126.934,148.84 C126.451,148.755 125.898,148.756 125.408,148.989 C124.955,149.189 124.635,149.533 124.351,149.839 C124.324,149.868 124.297,149.897 124.27,149.925 C123.967,150.261 123.669,150.547 123.308,150.71 L123.301,150.713 L123.284,150.722 C123.009,150.869 122.728,151.004 122.429,151.076 C122.13,151.149 121.821,151.169 121.494,151.18 C121.482,151.18 121.469,151.181 121.457,151.181 C121.14,151.191 120.803,151.201 120.465,151.254 C120.113,151.31 119.77,151.412 119.441,151.542 C119.115,151.678 118.801,151.844 118.506,152.038 C118.191,152.255 117.949,152.532 117.732,152.801 C117.637,152.922 117.546,153.044 117.457,153.163 C117.161,153.56 116.882,153.933 116.54,154.206 C116.292,154.287 115.984,154.303 115.656,154.319 C115.618,154.321 115.581,154.323 115.543,154.325 L115.543,154.325 C115.153,154.349 114.706,154.377 114.271,154.596 L114.114,154.686 L113.99,154.775 L113.741,154.951 C113.625,155.027 113.518,155.121 113.411,155.215 C113.362,155.257 113.314,155.3 113.264,155.341 C113.158,155.427 113.064,155.532 112.971,155.637 C112.925,155.69 112.878,155.743 112.83,155.793 C112.801,155.833 112.771,155.873 112.741,155.913 C112.644,156.044 112.545,156.176 112.469,156.323 C112.245,156.695 112.129,157.135 112.088,157.568 C112.048,158.009 112.137,158.436 112.251,158.837 C112.512,159.634 112.943,160.323 113.412,160.957 C114.087,161.856 114.828,162.681 115.563,163.5 C115.86,163.831 116.157,164.161 116.448,164.495 Z M121.223,169.963 C120.57,169.392 120.045,168.686 119.653,167.917 C118.966,166.455 117.941,165.246 116.924,164.079 C116.661,163.779 116.394,163.482 116.128,163.187 C115.36,162.333 114.597,161.486 113.943,160.573 C113.503,159.963 113.12,159.314 112.911,158.637 C112.821,158.299 112.755,157.955 112.792,157.623 C112.831,157.293 112.915,156.968 113.097,156.679 C113.153,156.571 113.23,156.472 113.306,156.372 C113.336,156.334 113.365,156.296 113.393,156.258 C113.44,156.211 113.484,156.163 113.528,156.114 C113.602,156.033 113.677,155.952 113.763,155.878 C113.809,155.838 113.853,155.797 113.898,155.756 C113.985,155.675 114.073,155.594 114.175,155.526 L114.396,155.361 L114.506,155.279 L114.599,155.222 C114.86,155.081 115.207,155.033 115.584,154.997 C115.649,154.99 115.716,154.984 115.783,154.978 C116.106,154.949 116.454,154.918 116.81,154.777 L116.817,154.774 C116.841,154.765 116.863,154.752 116.883,154.736 C117.288,154.416 117.577,154.019 117.852,153.641 C117.971,153.478 118.086,153.319 118.208,153.171 C118.41,152.926 118.622,152.699 118.869,152.551 C118.944,152.502 119.04,152.455 119.136,152.407 C119.184,152.383 119.232,152.36 119.277,152.336 C119.372,152.286 119.473,152.253 119.573,152.221 C119.621,152.205 119.669,152.189 119.716,152.172 C120.012,152.095 120.319,152.079 120.621,152.124 C120.772,152.147 120.919,152.184 121.072,152.223 C121.221,152.261 121.376,152.3 121.547,152.329 C121.89,152.394 122.319,152.409 122.74,152.309 C123.161,152.209 123.541,152.022 123.892,151.832 L123.8,151.875 C124.106,151.73 124.398,151.553 124.611,151.345 C124.827,151.145 125.009,150.938 125.153,150.763 C125.245,150.658 125.325,150.559 125.398,150.468 C125.569,150.257 125.702,150.093 125.855,149.999 C126.057,149.845 126.372,149.782 126.755,149.803 C127.091,149.795 127.409,149.919 127.724,150.147 C128.359,150.605 128.809,151.421 129.147,152.236 C129.302,152.604 129.437,152.987 129.574,153.373 C129.742,153.847 129.911,154.326 130.12,154.786 C130.431,155.484 130.754,156.174 131.077,156.862 C131.526,157.82 131.974,158.776 132.387,159.749 C133.062,161.43 133.687,163.148 133.966,164.933 C134.11,165.821 134.154,166.732 133.991,167.609 C133.844,168.478 133.446,169.285 132.845,169.931 C131.683,171.253 130.048,171.988 128.381,172.101 C127.549,172.158 126.708,172.164 125.867,172.041 C125.448,171.975 125.031,171.885 124.622,171.762 C124.208,171.649 123.803,171.506 123.41,171.333 C122.621,170.991 121.874,170.534 121.223,169.963 Z" id="Shape" fill="#000000"></path>
                <path d="M166.222,161.878 C167.789,156.782 164.469,147.822 171.107,148.756 C171.937,148.873 172.496,149.712 173.22,149.982 C174.31,150.051 175.319,149.483 176.312,149.658 C178.79,150.091 178.635,151.301 180.603,151.747 C181.895,152.183 183.128,151.124 184.352,152.646 C185.729,154.276 183.989,157.12 183.447,158.563 C181.878,162.478 180.366,171.246 175.462,172.413 C169.409,173.925 164.654,166.975 166.222,161.878 Z" id="Path" fill="#FFFFFF"></path>
                <path d="M162.886,128.954 C162.747,128.488 162.668,127.999 162.649,127.499 L162.649,127.499 L162.506,127.491 C162.046,128.491 162.159,129.731 162.718,130.741 L162.772,130.836 C162.774,130.839 162.776,130.843 162.778,130.847 C162.793,130.875 162.809,130.903 162.859,130.908 C162.915,130.914 163.005,130.895 163.092,130.877 C163.177,130.858 163.258,130.841 163.302,130.849 C163.378,130.898 163.434,130.961 163.489,131.025 C163.52,131.061 163.552,131.097 163.587,131.131 L164.13,131.72 C164.32,131.914 164.526,132.107 164.775,132.247 C165.016,132.387 165.3,132.51 165.602,132.456 L165.653,132.146 C165.582,131.804 165.516,131.691 165.429,131.609 C165.385,131.582 165.339,131.562 165.292,131.541 C165.243,131.52 165.193,131.498 165.146,131.468 C165.009,131.41 164.872,131.345 164.731,131.278 C164.67,131.249 164.608,131.219 164.545,131.19 C164.337,131.09 164.13,130.968 163.943,130.817 C163.853,130.739 163.767,130.655 163.688,130.564 C163.666,130.538 163.655,130.502 163.645,130.467 C163.638,130.442 163.63,130.416 163.618,130.395 C163.601,130.357 163.575,130.324 163.55,130.292 C163.538,130.278 163.527,130.263 163.516,130.248 C163.241,129.859 163.027,129.42 162.886,128.954 Z M165.916,161.785 C166.338,160.361 166.384,158.819 166.396,157.29 C166.399,156.851 166.396,156.412 166.393,155.97 C166.385,154.868 166.377,153.758 166.469,152.634 C166.539,151.849 166.674,151.048 167.008,150.279 C167.188,149.902 167.405,149.524 167.728,149.22 C168.046,148.923 168.426,148.669 168.84,148.539 C168.996,148.479 169.157,148.445 169.317,148.411 L169.317,148.411 C169.366,148.401 169.414,148.391 169.463,148.38 C169.533,148.374 169.604,148.365 169.674,148.357 C169.813,148.339 169.952,148.322 170.088,148.328 C170.154,148.33 170.22,148.33 170.286,148.33 C170.427,148.331 170.568,148.331 170.704,148.351 L171.008,148.383 L171.16,148.4 L171.338,148.436 C171.81,148.559 172.162,148.833 172.471,149.072 L172.563,149.145 C172.819,149.349 173.059,149.539 173.297,149.641 C173.734,149.663 174.19,149.567 174.675,149.466 L174.675,149.466 L174.675,149.466 C174.821,149.435 174.97,149.404 175.122,149.375 C175.464,149.317 175.829,149.27 176.209,149.315 C176.579,149.373 176.905,149.432 177.23,149.59 C177.34,149.644 177.452,149.692 177.564,149.741 L177.564,149.741 L177.564,149.741 C177.775,149.833 177.985,149.924 178.182,150.047 C178.471,150.219 178.732,150.428 178.977,150.625 L178.977,150.625 L179.012,150.653 C179.268,150.857 179.516,151.042 179.791,151.178 C180.064,151.317 180.359,151.41 180.664,151.485 L180.682,151.49 L180.689,151.492 C181.068,151.607 181.481,151.587 181.931,151.535 C181.969,151.532 182.008,151.528 182.047,151.524 L182.047,151.524 C182.462,151.482 182.932,151.434 183.407,151.582 C183.931,151.732 184.349,152.096 184.654,152.48 C185,152.876 185.179,153.415 185.223,153.916 C185.307,154.94 185.003,155.872 184.681,156.741 C184.554,157.083 184.411,157.413 184.27,157.739 L184.27,157.74 C184.23,157.832 184.191,157.923 184.152,158.015 C183.976,158.422 183.815,158.836 183.669,159.256 C183.361,160.162 183.082,161.087 182.801,162.019 C182.032,164.568 181.249,167.165 179.817,169.556 C179.322,170.365 178.725,171.14 177.97,171.795 C177.585,172.114 177.173,172.414 176.708,172.638 C176.251,172.86 175.737,173.038 175.262,173.123 C174.281,173.338 173.266,173.347 172.281,173.149 C171.289,172.969 170.368,172.526 169.543,171.988 C167.874,170.897 166.753,169.188 166.11,167.4 C165.794,166.497 165.597,165.555 165.562,164.603 C165.515,163.654 165.625,162.693 165.916,161.785 Z M166.528,161.972 C166.056,163.644 166.318,165.47 167.053,167.022 C167.407,167.807 167.89,168.528 168.441,169.171 C168.676,169.436 168.927,169.684 169.177,169.931 L169.177,169.931 C169.226,169.979 169.275,170.027 169.324,170.076 C169.613,170.381 169.936,170.649 170.27,170.903 C171.622,171.886 173.327,172.413 175.076,172.194 C175.955,172.107 176.79,171.765 177.476,171.21 C178.181,170.661 178.753,169.95 179.236,169.19 C180.212,167.668 180.886,165.969 181.497,164.263 C181.842,163.236 182.149,162.198 182.456,161.157 C182.663,160.454 182.871,159.75 183.092,159.047 C183.239,158.565 183.429,158.095 183.617,157.63 L183.617,157.629 C183.771,157.249 183.923,156.871 184.051,156.491 C184.191,156.067 184.29,155.63 184.322,155.198 C184.365,154.772 184.322,154.345 184.201,153.999 C184.077,153.645 183.877,153.42 183.625,153.283 C183.592,153.259 183.548,153.233 183.504,153.207 C183.474,153.19 183.443,153.172 183.416,153.155 C183.374,153.129 183.333,153.116 183.295,153.104 C183.27,153.096 183.246,153.088 183.222,153.078 C183.101,153.055 183.019,153.041 182.934,153.067 C182.905,153.074 182.873,153.082 182.837,153.091 C182.686,153.128 182.463,153.184 182.08,153.254 C181.857,153.3 181.558,153.329 181.228,153.337 C180.935,153.341 180.595,153.293 180.26,153.204 L180.27,153.206 L180.124,153.165 C180.169,153.179 180.214,153.192 180.26,153.204 C179.842,153.101 179.412,152.915 179.044,152.62 C178.669,152.325 178.415,151.932 178.249,151.599 C178.19,151.483 178.139,151.37 178.091,151.261 L178.09,151.261 C177.998,151.054 177.911,150.861 177.789,150.691 C177.701,150.556 177.596,150.433 177.476,150.326 C177.36,150.213 177.226,150.11 177.065,150.099 C177.023,150.095 176.981,150.096 176.939,150.096 L176.939,150.096 C176.899,150.096 176.859,150.097 176.82,150.093 C176.769,150.091 176.72,150.08 176.67,150.069 C176.643,150.063 176.616,150.057 176.588,150.053 C176.537,150.043 176.483,150.032 176.43,150.021 L176.429,150.021 L176.429,150.021 C176.326,149.999 176.224,149.978 176.136,149.971 C175.857,149.939 175.556,149.979 175.246,150.035 C175.101,150.063 174.952,150.096 174.8,150.13 L174.8,150.13 C174.304,150.241 173.772,150.361 173.198,150.33 C173.163,150.328 173.129,150.321 173.097,150.309 C172.726,150.166 172.448,149.95 172.192,149.751 C172.139,149.71 172.087,149.669 172.034,149.63 C171.736,149.399 171.45,149.202 171.165,149.135 L171.058,149.114 L170.921,149.102 L170.647,149.076 C170.527,149.059 170.408,149.06 170.289,149.061 C170.228,149.062 170.167,149.063 170.105,149.061 C169.993,149.059 169.884,149.07 169.776,149.082 L169.776,149.082 C169.709,149.089 169.643,149.096 169.576,149.1 C169.525,149.112 169.474,149.122 169.423,149.132 L169.423,149.132 L169.423,149.132 C169.304,149.155 169.185,149.179 169.075,149.221 C168.747,149.318 168.468,149.506 168.22,149.727 C167.972,149.95 167.793,150.252 167.636,150.565 C167.344,151.211 167.2,151.95 167.125,152.698 C167.01,153.812 167.019,154.948 167.027,156.093 C167.03,156.492 167.033,156.893 167.031,157.293 C167.018,158.84 166.983,160.423 166.528,161.972 L166.528,161.972 Z" id="Shape" fill="#000000"></path>
                <path d="M68.660338,103.88008 L103.310938,103.88008 C104.139365,103.88008 104.810938,104.551653 104.810938,105.38008 L104.810938,150.37828 C104.810938,151.206707 104.139365,151.87828 103.310938,151.87828 L68.660338,151.87828 C67.8319109,151.87828 67.160338,151.206707 67.160338,150.37828 L67.160338,105.38008 C67.160338,104.551653 67.8319109,103.88008 68.660338,103.88008 Z" id="Rectangle" stroke="#520E27" fill="#F6BE97" fill-rule="nonzero" transform="translate(85.985638, 127.879180) rotate(-30.000000) translate(-85.985638, -127.879180) "></path>
                <path d="M62.5323,120.36 C62.118,119.643 62.3639,118.726 63.0813,118.311 L89.1517,103.26 C89.8691,102.845 90.7865,103.091 91.2007,103.809 L109.972,136.321 C110.386,137.038 110.14,137.956 109.423,138.37 L99.626,144.026 C99.255,144.24 98.81,144.286 98.404,144.151 L97.3316,143.795 C95.9113,143.324 94.3981,144.198 94.0959,145.663 L93.8678,146.77 C93.7814,147.189 93.5197,147.552 93.1487,147.766 L83.3523,153.422 C82.6348,153.836 81.7175,153.59 81.3032,152.873 L62.5323,120.36 Z" id="Path" stroke="#520E27" fill="#FFFFFF" fill-rule="nonzero"></path>
                <ellipse id="Oval" fill="#520E27" fill-rule="nonzero" transform="translate(96.637300, 146.329000) rotate(60.000000) translate(-96.637300, -146.329000) " cx="96.6373" cy="146.329" rx="1.06518" ry="1.13678"></ellipse>
                <path d="M81.4112,130.65 L79.6301,131.678 L76.1584,125.665 L73.5045,127.197 L76.9762,133.211 L75.1951,134.239 L70.9295,126.851 L77.1456,123.262 L81.4112,130.65 Z M90.4826,127.835 L88.8842,128.758 L87.8354,126.941 L83.8114,129.264 L84.8573,131.076 L83.2081,132.028 L81.2444,128.92 L81.767,128.618 C81.9356,128.277 81.9748,127.837 81.8847,127.298 C81.796,126.754 81.547,126.045 81.1376,125.172 L79.5407,121.879 L84.5694,118.976 L88.044,124.994 L88.8305,124.54 L90.4826,127.835 Z M83.7815,127.455 L86.268,126.019 L83.5873,121.376 L82.0143,122.284 L82.9437,124.211 C83.5336,125.467 83.8129,126.548 83.7815,127.455 Z M98.297,123.323 L96.6987,124.246 L95.6499,122.429 L91.6259,124.753 L92.6718,126.564 L91.0227,127.516 L89.0589,124.408 L89.5815,124.106 C89.7501,123.765 89.7893,123.325 89.6992,122.787 C89.6106,122.242 89.3615,121.534 88.9521,120.66 L87.3552,117.367 L92.3839,114.464 L95.8585,120.482 L96.6451,120.028 L98.297,123.323 Z M91.5961,122.943 L94.0825,121.508 L91.4018,116.864 L89.8288,117.773 L90.7582,119.699 C91.3481,120.955 91.6274,122.036 91.5961,122.943 Z" id="Shape" fill="#000000" fill-rule="nonzero"></path>
                <path d="M101.297,108.672 C99.259,108.341 99.044,107.601 97.3566,106.777 C94.0893,105.181 91.3047,109.905 98.134,111.323" id="Path" fill="#FFFFFF"></path>
                <path d="M101.297,108.672 C99.259,108.341 99.044,107.601 97.3566,106.777 C94.0893,105.181 91.3047,109.905 98.134,111.323" id="Path" stroke="#000000" stroke-width="0.625971" stroke-linecap="round"></path>
                <path d="M181.342,154.666 C182.056,154.459 182.487,154.636 183.138,155.004 C183.548,155.234 183.18,155.863 182.77,155.632 C181.998,155.197 181.415,155.466 180.853,155.725 C180.308,155.977 179.782,156.22 179.121,155.8 C178.638,155.494 178.196,155.108 177.753,154.721 C177.158,154.202 176.56,153.679 175.855,153.343 C174.884,152.879 174.199,153.303 173.369,153.815 C173.215,153.91 173.057,154.009 172.89,154.105 C172.482,154.34 172.115,153.711 172.522,153.476 C172.712,153.366 172.925,153.218 173.152,153.06 C173.781,152.623 174.517,152.112 175.157,152.14 C175.888,152.173 176.88,153.013 177.617,153.637 C177.819,153.808 178.002,153.963 178.155,154.081 C178.292,154.186 178.445,154.335 178.603,154.491 C178.901,154.783 179.221,155.096 179.506,155.182 C180.057,155.348 180.375,155.161 180.725,154.956 C180.91,154.848 181.102,154.735 181.342,154.666 Z M122.813,154.189 C123.184,153.566 123.704,153.384 124.384,153.161 L124.384,153.161 C124.832,153.015 125.022,153.718 124.578,153.863 C123.538,154.203 123.391,154.707 123.245,155.205 C123.146,155.544 123.048,155.88 122.67,156.159 C122.344,156.399 121.868,156.457 121.433,156.509 C121.281,156.527 121.134,156.545 120.999,156.57 C120.804,156.606 120.603,156.641 120.4,156.676 C119.477,156.837 118.498,157.007 117.655,157.342 C116.692,157.726 116.47,158.418 116.185,159.31 C116.144,159.435 116.103,159.565 116.058,159.697 C115.909,160.14 115.204,159.949 115.355,159.504 C115.421,159.306 115.48,159.078 115.541,158.839 C115.71,158.179 115.9,157.436 116.342,157.032 C116.851,156.565 117.969,156.385 118.855,156.242 C119.134,156.198 119.39,156.157 119.597,156.111 C119.816,156.063 120.076,156.034 120.344,156.003 C120.829,155.948 121.343,155.89 121.701,155.713 C122.211,155.46 122.356,155.138 122.539,154.734 C122.615,154.567 122.696,154.386 122.813,154.189 Z" id="Shape" fill="#000000"></path>
            </g>
        </g>
    </g>
</svg>